<mxfile host="app.diagrams.net" modified="2024-01-23T05:51:55.826Z" agent="Mozilla/5.0 (Macintosh; Intel Mac OS X 10.15; rv:121.0) Gecko/20100101 Firefox/121.0" etag="kSJWKGYizJ-EIQr3pAE3" version="22.1.21" type="github" pages="6">
  <diagram name="Page-1" id="4NYb0zLQct-NG_Pp62c1">
    <mxGraphModel dx="965" dy="601" grid="1" gridSize="10" guides="1" tooltips="1" connect="1" arrows="1" fold="1" page="1" pageScale="1" pageWidth="850" pageHeight="1100" math="0" shadow="0">
      <root>
        <mxCell id="0" />
        <mxCell id="1" parent="0" />
        <mxCell id="V-ygPXuaMBpOGokOMCwL-1" value="CommonService CR&lt;br&gt;size:" style="rounded=0;whiteSpace=wrap;html=1;fillColor=#e1d5e7;strokeColor=#9673a6;shadow=1;" parent="1" vertex="1">
          <mxGeometry x="100" y="120" width="120" height="60" as="geometry" />
        </mxCell>
        <mxCell id="V-ygPXuaMBpOGokOMCwL-2" value="OperandRequest&lt;br&gt;IMOperator" style="rounded=0;whiteSpace=wrap;html=1;fillColor=#e1d5e7;strokeColor=#9673a6;shadow=1;" parent="1" vertex="1">
          <mxGeometry x="360" y="120" width="120" height="60" as="geometry" />
        </mxCell>
        <mxCell id="V-ygPXuaMBpOGokOMCwL-4" style="edgeStyle=orthogonalEdgeStyle;rounded=0;orthogonalLoop=1;jettySize=auto;html=1;exitX=0;exitY=0.5;exitDx=0;exitDy=0;entryX=0.5;entryY=1;entryDx=0;entryDy=0;" parent="1" source="V-ygPXuaMBpOGokOMCwL-3" target="V-ygPXuaMBpOGokOMCwL-1" edge="1">
          <mxGeometry relative="1" as="geometry" />
        </mxCell>
        <mxCell id="V-ygPXuaMBpOGokOMCwL-5" style="edgeStyle=orthogonalEdgeStyle;rounded=0;orthogonalLoop=1;jettySize=auto;html=1;exitX=0.5;exitY=0;exitDx=0;exitDy=0;entryX=0.5;entryY=1;entryDx=0;entryDy=0;" parent="1" source="V-ygPXuaMBpOGokOMCwL-3" target="V-ygPXuaMBpOGokOMCwL-2" edge="1">
          <mxGeometry relative="1" as="geometry" />
        </mxCell>
        <mxCell id="V-ygPXuaMBpOGokOMCwL-14" style="edgeStyle=orthogonalEdgeStyle;rounded=0;orthogonalLoop=1;jettySize=auto;html=1;exitX=1;exitY=0.5;exitDx=0;exitDy=0;" parent="1" source="V-ygPXuaMBpOGokOMCwL-3" target="V-ygPXuaMBpOGokOMCwL-12" edge="1">
          <mxGeometry relative="1" as="geometry" />
        </mxCell>
        <mxCell id="V-ygPXuaMBpOGokOMCwL-28" style="edgeStyle=orthogonalEdgeStyle;rounded=0;orthogonalLoop=1;jettySize=auto;html=1;exitX=1;exitY=0.75;exitDx=0;exitDy=0;entryX=0;entryY=0.5;entryDx=0;entryDy=0;" parent="1" source="V-ygPXuaMBpOGokOMCwL-3" target="V-ygPXuaMBpOGokOMCwL-27" edge="1">
          <mxGeometry relative="1" as="geometry">
            <Array as="points">
              <mxPoint x="580" y="295" />
              <mxPoint x="580" y="400" />
            </Array>
          </mxGeometry>
        </mxCell>
        <mxCell id="V-ygPXuaMBpOGokOMCwL-3" value="ODLM" style="rounded=0;whiteSpace=wrap;html=1;fillColor=#e1d5e7;strokeColor=#9673a6;shadow=1;" parent="1" vertex="1">
          <mxGeometry x="360" y="250" width="120" height="60" as="geometry" />
        </mxCell>
        <mxCell id="V-ygPXuaMBpOGokOMCwL-10" style="edgeStyle=orthogonalEdgeStyle;rounded=0;orthogonalLoop=1;jettySize=auto;html=1;exitX=1;exitY=0.5;exitDx=0;exitDy=0;" parent="1" source="V-ygPXuaMBpOGokOMCwL-7" edge="1">
          <mxGeometry relative="1" as="geometry">
            <mxPoint x="400" y="310" as="targetPoint" />
            <Array as="points">
              <mxPoint x="400" y="370" />
              <mxPoint x="400" y="310" />
            </Array>
          </mxGeometry>
        </mxCell>
        <mxCell id="V-ygPXuaMBpOGokOMCwL-7" value="cpp-datastore-config" style="rounded=0;whiteSpace=wrap;html=1;fillColor=#d5e8d4;strokeColor=#82b366;shadow=1;" parent="1" vertex="1">
          <mxGeometry x="100" y="340" width="120" height="60" as="geometry" />
        </mxCell>
        <mxCell id="V-ygPXuaMBpOGokOMCwL-8" value="cpp-datastore-secret" style="rounded=0;whiteSpace=wrap;html=1;fillColor=#d5e8d4;strokeColor=#82b366;shadow=1;" parent="1" vertex="1">
          <mxGeometry x="100" y="440" width="120" height="60" as="geometry" />
        </mxCell>
        <mxCell id="V-ygPXuaMBpOGokOMCwL-11" value="" style="edgeStyle=elbowEdgeStyle;elbow=horizontal;endArrow=classic;html=1;curved=0;rounded=0;endSize=8;startSize=8;entryX=1;entryY=0.5;entryDx=0;entryDy=0;exitX=0.6;exitY=1.017;exitDx=0;exitDy=0;exitPerimeter=0;" parent="1" source="V-ygPXuaMBpOGokOMCwL-3" target="V-ygPXuaMBpOGokOMCwL-8" edge="1">
          <mxGeometry width="50" height="50" relative="1" as="geometry">
            <mxPoint x="400" y="360" as="sourcePoint" />
            <mxPoint x="450" y="310" as="targetPoint" />
            <Array as="points">
              <mxPoint x="430" y="390" />
            </Array>
          </mxGeometry>
        </mxCell>
        <mxCell id="V-ygPXuaMBpOGokOMCwL-12" value="External PostgreSQL" style="shape=cylinder3;whiteSpace=wrap;html=1;boundedLbl=1;backgroundOutline=1;size=15;fillColor=#dae8fc;strokeColor=#6c8ebf;shadow=1;" parent="1" vertex="1">
          <mxGeometry x="680" y="200" width="80" height="80" as="geometry" />
        </mxCell>
        <mxCell id="V-ygPXuaMBpOGokOMCwL-13" value="EDB" style="shape=cylinder3;whiteSpace=wrap;html=1;boundedLbl=1;backgroundOutline=1;size=15;shadow=1;fillColor=#dae8fc;strokeColor=#6c8ebf;" parent="1" vertex="1">
          <mxGeometry x="660" y="520" width="80" height="80" as="geometry" />
        </mxCell>
        <mxCell id="V-ygPXuaMBpOGokOMCwL-15" style="edgeStyle=orthogonalEdgeStyle;rounded=0;orthogonalLoop=1;jettySize=auto;html=1;exitX=1;exitY=0.75;exitDx=0;exitDy=0;entryX=0;entryY=0.5;entryDx=0;entryDy=0;" parent="1" source="V-ygPXuaMBpOGokOMCwL-3" target="V-ygPXuaMBpOGokOMCwL-26" edge="1">
          <mxGeometry relative="1" as="geometry">
            <Array as="points">
              <mxPoint x="580" y="295" />
              <mxPoint x="580" y="330" />
            </Array>
          </mxGeometry>
        </mxCell>
        <mxCell id="V-ygPXuaMBpOGokOMCwL-16" value="&lt;i&gt;determine the size for the database service&lt;/i&gt;" style="text;html=1;strokeColor=none;fillColor=none;align=center;verticalAlign=middle;whiteSpace=wrap;rounded=0;" parent="1" vertex="1">
          <mxGeometry x="200" y="250" width="120" height="30" as="geometry" />
        </mxCell>
        <mxCell id="V-ygPXuaMBpOGokOMCwL-17" value="&lt;i&gt;monitor&lt;/i&gt; &lt;i&gt;OperandRequests&lt;/i&gt;" style="text;html=1;strokeColor=none;fillColor=none;align=center;verticalAlign=middle;whiteSpace=wrap;rounded=0;" parent="1" vertex="1">
          <mxGeometry x="440" y="210" width="60" height="30" as="geometry" />
        </mxCell>
        <mxCell id="V-ygPXuaMBpOGokOMCwL-18" value="&lt;i style=&quot;border-color: var(--border-color);&quot;&gt;create database&lt;/i&gt;" style="text;html=1;strokeColor=none;fillColor=none;align=center;verticalAlign=middle;whiteSpace=wrap;rounded=0;" parent="1" vertex="1">
          <mxGeometry x="590" y="210" width="60" height="30" as="geometry" />
        </mxCell>
        <mxCell id="V-ygPXuaMBpOGokOMCwL-20" value="&lt;i&gt;read/write database connection/config&lt;/i&gt;" style="text;html=1;strokeColor=none;fillColor=none;align=center;verticalAlign=middle;whiteSpace=wrap;rounded=0;" parent="1" vertex="1">
          <mxGeometry x="250" y="340" width="110" height="30" as="geometry" />
        </mxCell>
        <mxCell id="V-ygPXuaMBpOGokOMCwL-21" value="&lt;i&gt;read/write database access credentials&lt;/i&gt;" style="text;html=1;strokeColor=none;fillColor=none;align=center;verticalAlign=middle;whiteSpace=wrap;rounded=0;" parent="1" vertex="1">
          <mxGeometry x="260" y="440" width="120" height="30" as="geometry" />
        </mxCell>
        <mxCell id="V-ygPXuaMBpOGokOMCwL-22" value="ConfigMap" style="text;html=1;strokeColor=none;fillColor=none;align=center;verticalAlign=middle;whiteSpace=wrap;rounded=0;" parent="1" vertex="1">
          <mxGeometry x="130" y="340" width="60" height="30" as="geometry" />
        </mxCell>
        <mxCell id="V-ygPXuaMBpOGokOMCwL-23" value="Secret" style="text;html=1;strokeColor=none;fillColor=none;align=center;verticalAlign=middle;whiteSpace=wrap;rounded=0;" parent="1" vertex="1">
          <mxGeometry x="130" y="434" width="60" height="30" as="geometry" />
        </mxCell>
        <mxCell id="V-ygPXuaMBpOGokOMCwL-24" value="external DB" style="text;html=1;strokeColor=none;fillColor=none;align=center;verticalAlign=middle;whiteSpace=wrap;rounded=0;" parent="1" vertex="1">
          <mxGeometry x="500" y="250" width="60" height="30" as="geometry" />
        </mxCell>
        <mxCell id="V-ygPXuaMBpOGokOMCwL-25" value="embedded DB" style="text;html=1;strokeColor=none;fillColor=none;align=center;verticalAlign=middle;whiteSpace=wrap;rounded=0;" parent="1" vertex="1">
          <mxGeometry x="500" y="300" width="60" height="30" as="geometry" />
        </mxCell>
        <mxCell id="V-ygPXuaMBpOGokOMCwL-29" style="edgeStyle=orthogonalEdgeStyle;rounded=0;orthogonalLoop=1;jettySize=auto;html=1;exitX=0.5;exitY=1;exitDx=0;exitDy=0;entryX=0.5;entryY=0;entryDx=0;entryDy=0;" parent="1" source="V-ygPXuaMBpOGokOMCwL-26" target="V-ygPXuaMBpOGokOMCwL-27" edge="1">
          <mxGeometry relative="1" as="geometry" />
        </mxCell>
        <mxCell id="V-ygPXuaMBpOGokOMCwL-32" style="edgeStyle=orthogonalEdgeStyle;rounded=0;orthogonalLoop=1;jettySize=auto;html=1;exitX=1;exitY=0.5;exitDx=0;exitDy=0;entryX=1;entryY=0.5;entryDx=0;entryDy=0;" parent="1" source="V-ygPXuaMBpOGokOMCwL-26" target="V-ygPXuaMBpOGokOMCwL-31" edge="1">
          <mxGeometry relative="1" as="geometry" />
        </mxCell>
        <mxCell id="V-ygPXuaMBpOGokOMCwL-26" value="Postgresql Operator" style="rounded=0;whiteSpace=wrap;html=1;fillColor=#dae8fc;strokeColor=#6c8ebf;shadow=1;" parent="1" vertex="1">
          <mxGeometry x="640" y="310" width="120" height="40" as="geometry" />
        </mxCell>
        <mxCell id="V-ygPXuaMBpOGokOMCwL-27" value="Cluster CR" style="rounded=0;whiteSpace=wrap;html=1;fillColor=#dae8fc;strokeColor=#6c8ebf;shadow=1;" parent="1" vertex="1">
          <mxGeometry x="640" y="380" width="120" height="40" as="geometry" />
        </mxCell>
        <mxCell id="V-ygPXuaMBpOGokOMCwL-33" style="edgeStyle=orthogonalEdgeStyle;rounded=0;orthogonalLoop=1;jettySize=auto;html=1;exitX=0.5;exitY=1;exitDx=0;exitDy=0;" parent="1" source="V-ygPXuaMBpOGokOMCwL-30" target="V-ygPXuaMBpOGokOMCwL-13" edge="1">
          <mxGeometry relative="1" as="geometry" />
        </mxCell>
        <mxCell id="V-ygPXuaMBpOGokOMCwL-30" value="datastore-edb" style="rounded=0;whiteSpace=wrap;html=1;fillColor=#dae8fc;strokeColor=#6c8ebf;shadow=1;" parent="1" vertex="1">
          <mxGeometry x="640" y="450" width="120" height="40" as="geometry" />
        </mxCell>
        <mxCell id="V-ygPXuaMBpOGokOMCwL-31" value="datastore-edb-1" style="rounded=0;whiteSpace=wrap;html=1;fillColor=#dae8fc;strokeColor=#6c8ebf;shadow=1;" parent="1" vertex="1">
          <mxGeometry x="650" y="440" width="120" height="40" as="geometry" />
        </mxCell>
        <mxCell id="V-ygPXuaMBpOGokOMCwL-34" value="&lt;i style=&quot;border-color: var(--border-color);&quot;&gt;create database&lt;/i&gt;" style="text;html=1;strokeColor=none;fillColor=none;align=center;verticalAlign=middle;whiteSpace=wrap;rounded=0;" parent="1" vertex="1">
          <mxGeometry x="620" y="500" width="60" height="30" as="geometry" />
        </mxCell>
      </root>
    </mxGraphModel>
  </diagram>
  <diagram name="Copy of Page-1" id="gDhjH6wC1CXVdjZo_iOn">
    <mxGraphModel dx="1104" dy="680" grid="1" gridSize="10" guides="1" tooltips="1" connect="1" arrows="1" fold="1" page="1" pageScale="1" pageWidth="850" pageHeight="1100" math="0" shadow="0">
      <root>
        <mxCell id="aXqo243ZjY-tswD3DviX-0" />
        <mxCell id="aXqo243ZjY-tswD3DviX-1" parent="aXqo243ZjY-tswD3DviX-0" />
        <mxCell id="aXqo243ZjY-tswD3DviX-2" value="CommonService CR&lt;br&gt;size:" style="rounded=0;whiteSpace=wrap;html=1;fillColor=#e1d5e7;strokeColor=#9673a6;shadow=1;" parent="aXqo243ZjY-tswD3DviX-1" vertex="1">
          <mxGeometry x="675" y="210" width="120" height="60" as="geometry" />
        </mxCell>
        <mxCell id="aXqo243ZjY-tswD3DviX-3" value="OperandRequest&lt;br&gt;IMOperator" style="rounded=0;whiteSpace=wrap;html=1;fillColor=#e1d5e7;strokeColor=#9673a6;shadow=1;" parent="aXqo243ZjY-tswD3DviX-1" vertex="1">
          <mxGeometry x="360" y="130" width="120" height="60" as="geometry" />
        </mxCell>
        <mxCell id="KxxHpRpTSut9hbL86l03-28" style="edgeStyle=orthogonalEdgeStyle;rounded=0;orthogonalLoop=1;jettySize=auto;html=1;exitX=1;exitY=0.5;exitDx=0;exitDy=0;entryX=0.5;entryY=1;entryDx=0;entryDy=0;" parent="aXqo243ZjY-tswD3DviX-1" source="aXqo243ZjY-tswD3DviX-8" target="KxxHpRpTSut9hbL86l03-4" edge="1">
          <mxGeometry relative="1" as="geometry" />
        </mxCell>
        <mxCell id="g735U0OdRRv8APV3Qpki-0" style="edgeStyle=orthogonalEdgeStyle;rounded=0;orthogonalLoop=1;jettySize=auto;html=1;exitX=0.5;exitY=1;exitDx=0;exitDy=0;entryX=0;entryY=0.5;entryDx=0;entryDy=0;" parent="aXqo243ZjY-tswD3DviX-1" source="aXqo243ZjY-tswD3DviX-8" target="aXqo243ZjY-tswD3DviX-28" edge="1">
          <mxGeometry relative="1" as="geometry" />
        </mxCell>
        <mxCell id="g735U0OdRRv8APV3Qpki-1" style="edgeStyle=orthogonalEdgeStyle;rounded=0;orthogonalLoop=1;jettySize=auto;html=1;entryX=0;entryY=0.5;entryDx=0;entryDy=0;" parent="aXqo243ZjY-tswD3DviX-1" source="aXqo243ZjY-tswD3DviX-8" target="aXqo243ZjY-tswD3DviX-10" edge="1">
          <mxGeometry relative="1" as="geometry" />
        </mxCell>
        <mxCell id="g735U0OdRRv8APV3Qpki-2" style="edgeStyle=orthogonalEdgeStyle;rounded=0;orthogonalLoop=1;jettySize=auto;html=1;exitX=0.5;exitY=1;exitDx=0;exitDy=0;entryX=0;entryY=0.5;entryDx=0;entryDy=0;" parent="aXqo243ZjY-tswD3DviX-1" source="aXqo243ZjY-tswD3DviX-8" target="aXqo243ZjY-tswD3DviX-11" edge="1">
          <mxGeometry relative="1" as="geometry" />
        </mxCell>
        <mxCell id="aXqo243ZjY-tswD3DviX-8" value="ODLM" style="rounded=0;whiteSpace=wrap;html=1;fillColor=#e1d5e7;strokeColor=#9673a6;shadow=1;" parent="aXqo243ZjY-tswD3DviX-1" vertex="1">
          <mxGeometry x="440" y="210" width="120" height="60" as="geometry" />
        </mxCell>
        <mxCell id="aXqo243ZjY-tswD3DviX-10" value="cpp-datastore-config" style="rounded=0;whiteSpace=wrap;html=1;fillColor=#e1d5e7;strokeColor=#9673a6;shadow=1;" parent="aXqo243ZjY-tswD3DviX-1" vertex="1">
          <mxGeometry x="540" y="586" width="120" height="40" as="geometry" />
        </mxCell>
        <mxCell id="aXqo243ZjY-tswD3DviX-11" value="cpp-datastore-secret" style="rounded=0;whiteSpace=wrap;html=1;fillColor=#e1d5e7;strokeColor=#9673a6;shadow=1;" parent="aXqo243ZjY-tswD3DviX-1" vertex="1">
          <mxGeometry x="540" y="636" width="120" height="40" as="geometry" />
        </mxCell>
        <mxCell id="aXqo243ZjY-tswD3DviX-14" value="EDB" style="shape=cylinder3;whiteSpace=wrap;html=1;boundedLbl=1;backgroundOutline=1;size=15;shadow=1;fillColor=#e1d5e7;strokeColor=#9673a6;" parent="aXqo243ZjY-tswD3DviX-1" vertex="1">
          <mxGeometry x="565" y="500" width="80" height="80" as="geometry" />
        </mxCell>
        <mxCell id="aXqo243ZjY-tswD3DviX-21" value="ConfigMap" style="text;html=1;strokeColor=none;fillColor=none;align=center;verticalAlign=middle;whiteSpace=wrap;rounded=0;" parent="aXqo243ZjY-tswD3DviX-1" vertex="1">
          <mxGeometry x="560" y="580" width="60" height="30" as="geometry" />
        </mxCell>
        <mxCell id="aXqo243ZjY-tswD3DviX-22" value="Secret" style="text;html=1;strokeColor=none;fillColor=none;align=center;verticalAlign=middle;whiteSpace=wrap;rounded=0;" parent="aXqo243ZjY-tswD3DviX-1" vertex="1">
          <mxGeometry x="570" y="630" width="60" height="30" as="geometry" />
        </mxCell>
        <mxCell id="aXqo243ZjY-tswD3DviX-26" style="edgeStyle=orthogonalEdgeStyle;rounded=0;orthogonalLoop=1;jettySize=auto;html=1;exitX=1;exitY=0.5;exitDx=0;exitDy=0;entryX=1;entryY=0.5;entryDx=0;entryDy=0;" parent="aXqo243ZjY-tswD3DviX-1" source="aXqo243ZjY-tswD3DviX-27" target="aXqo243ZjY-tswD3DviX-31" edge="1">
          <mxGeometry relative="1" as="geometry" />
        </mxCell>
        <mxCell id="aXqo243ZjY-tswD3DviX-27" value="Postgresql Operator" style="rounded=0;whiteSpace=wrap;html=1;fillColor=#e1d5e7;strokeColor=#9673a6;shadow=1;" parent="aXqo243ZjY-tswD3DviX-1" vertex="1">
          <mxGeometry x="540" y="280" width="120" height="40" as="geometry" />
        </mxCell>
        <mxCell id="aXqo243ZjY-tswD3DviX-28" value="Cluster CR" style="rounded=0;whiteSpace=wrap;html=1;fillColor=#e1d5e7;strokeColor=#9673a6;shadow=1;" parent="aXqo243ZjY-tswD3DviX-1" vertex="1">
          <mxGeometry x="540" y="340" width="120" height="40" as="geometry" />
        </mxCell>
        <mxCell id="aXqo243ZjY-tswD3DviX-29" style="edgeStyle=orthogonalEdgeStyle;rounded=0;orthogonalLoop=1;jettySize=auto;html=1;exitX=0.5;exitY=1;exitDx=0;exitDy=0;" parent="aXqo243ZjY-tswD3DviX-1" source="aXqo243ZjY-tswD3DviX-30" target="aXqo243ZjY-tswD3DviX-14" edge="1">
          <mxGeometry relative="1" as="geometry" />
        </mxCell>
        <mxCell id="aXqo243ZjY-tswD3DviX-30" value="datastore-edb" style="rounded=0;whiteSpace=wrap;html=1;fillColor=#e1d5e7;strokeColor=#9673a6;shadow=1;" parent="aXqo243ZjY-tswD3DviX-1" vertex="1">
          <mxGeometry x="545" y="430" width="120" height="40" as="geometry" />
        </mxCell>
        <mxCell id="aXqo243ZjY-tswD3DviX-31" value="datastore-edb-1" style="rounded=0;whiteSpace=wrap;html=1;fillColor=#e1d5e7;strokeColor=#9673a6;shadow=1;" parent="aXqo243ZjY-tswD3DviX-1" vertex="1">
          <mxGeometry x="555" y="420" width="120" height="40" as="geometry" />
        </mxCell>
        <mxCell id="KxxHpRpTSut9hbL86l03-25" style="edgeStyle=orthogonalEdgeStyle;rounded=0;orthogonalLoop=1;jettySize=auto;html=1;exitX=0;exitY=0.5;exitDx=0;exitDy=0;entryX=0.5;entryY=0;entryDx=0;entryDy=0;" parent="aXqo243ZjY-tswD3DviX-1" source="KxxHpRpTSut9hbL86l03-0" target="KxxHpRpTSut9hbL86l03-4" edge="1">
          <mxGeometry relative="1" as="geometry" />
        </mxCell>
        <mxCell id="KxxHpRpTSut9hbL86l03-0" value="IM Operator" style="rounded=0;whiteSpace=wrap;html=1;fillColor=#e1d5e7;strokeColor=#9673a6;shadow=1;" parent="aXqo243ZjY-tswD3DviX-1" vertex="1">
          <mxGeometry x="360" y="280" width="120" height="60" as="geometry" />
        </mxCell>
        <mxCell id="KxxHpRpTSut9hbL86l03-4" value="OperandRequest&lt;br&gt;Postgresql" style="rounded=0;whiteSpace=wrap;html=1;fillColor=#e1d5e7;strokeColor=#9673a6;shadow=1;" parent="aXqo243ZjY-tswD3DviX-1" vertex="1">
          <mxGeometry x="540" y="130" width="120" height="60" as="geometry" />
        </mxCell>
        <mxCell id="KxxHpRpTSut9hbL86l03-26" style="edgeStyle=orthogonalEdgeStyle;rounded=0;orthogonalLoop=1;jettySize=auto;html=1;exitX=0;exitY=0.5;exitDx=0;exitDy=0;entryX=0.417;entryY=1.025;entryDx=0;entryDy=0;entryPerimeter=0;" parent="aXqo243ZjY-tswD3DviX-1" source="aXqo243ZjY-tswD3DviX-8" target="aXqo243ZjY-tswD3DviX-3" edge="1">
          <mxGeometry relative="1" as="geometry" />
        </mxCell>
        <mxCell id="KxxHpRpTSut9hbL86l03-27" style="edgeStyle=orthogonalEdgeStyle;rounded=0;orthogonalLoop=1;jettySize=auto;html=1;exitX=0;exitY=0.75;exitDx=0;exitDy=0;entryX=0.4;entryY=-0.008;entryDx=0;entryDy=0;entryPerimeter=0;" parent="aXqo243ZjY-tswD3DviX-1" source="aXqo243ZjY-tswD3DviX-8" target="KxxHpRpTSut9hbL86l03-0" edge="1">
          <mxGeometry relative="1" as="geometry" />
        </mxCell>
        <mxCell id="KxxHpRpTSut9hbL86l03-29" style="edgeStyle=orthogonalEdgeStyle;rounded=0;orthogonalLoop=1;jettySize=auto;html=1;exitX=1;exitY=0.75;exitDx=0;exitDy=0;entryX=0.5;entryY=0;entryDx=0;entryDy=0;" parent="aXqo243ZjY-tswD3DviX-1" source="aXqo243ZjY-tswD3DviX-8" target="aXqo243ZjY-tswD3DviX-27" edge="1">
          <mxGeometry relative="1" as="geometry" />
        </mxCell>
      </root>
    </mxGraphModel>
  </diagram>
  <diagram id="crekCCUXudejADSFX16k" name="im-internal-postgres">
    <mxGraphModel dx="1599" dy="944" grid="0" gridSize="10" guides="1" tooltips="1" connect="1" arrows="1" fold="1" page="1" pageScale="1" pageWidth="850" pageHeight="1100" math="0" shadow="0">
      <root>
        <mxCell id="0" />
        <mxCell id="1" parent="0" />
        <mxCell id="ta1OCtWiiESoTJp8jfqA-3" style="edgeStyle=orthogonalEdgeStyle;rounded=0;orthogonalLoop=1;jettySize=auto;html=1;exitX=0.5;exitY=1;exitDx=0;exitDy=0;entryX=0.5;entryY=0;entryDx=0;entryDy=0;" edge="1" parent="1" source="ta1OCtWiiESoTJp8jfqA-1" target="ta1OCtWiiESoTJp8jfqA-2">
          <mxGeometry relative="1" as="geometry" />
        </mxCell>
        <mxCell id="ta1OCtWiiESoTJp8jfqA-16" style="edgeStyle=orthogonalEdgeStyle;rounded=0;orthogonalLoop=1;jettySize=auto;html=1;exitX=1;exitY=0.5;exitDx=0;exitDy=0;entryX=0.5;entryY=0;entryDx=0;entryDy=0;" edge="1" parent="1" source="ta1OCtWiiESoTJp8jfqA-1" target="ta1OCtWiiESoTJp8jfqA-6">
          <mxGeometry relative="1" as="geometry" />
        </mxCell>
        <mxCell id="ta1OCtWiiESoTJp8jfqA-19" style="edgeStyle=orthogonalEdgeStyle;rounded=0;orthogonalLoop=1;jettySize=auto;html=1;exitX=1;exitY=0.25;exitDx=0;exitDy=0;entryX=1;entryY=0.5;entryDx=0;entryDy=0;" edge="1" parent="1" source="ta1OCtWiiESoTJp8jfqA-1" target="ta1OCtWiiESoTJp8jfqA-17">
          <mxGeometry relative="1" as="geometry">
            <Array as="points">
              <mxPoint x="580" y="115" />
              <mxPoint x="580" y="500" />
            </Array>
          </mxGeometry>
        </mxCell>
        <mxCell id="ta1OCtWiiESoTJp8jfqA-1" value="Cloud Pak Operator " style="rounded=0;whiteSpace=wrap;html=1;fillColor=#e1d5e7;strokeColor=#9673a6;shadow=1;" vertex="1" parent="1">
          <mxGeometry x="210" y="100" width="120" height="60" as="geometry" />
        </mxCell>
        <mxCell id="ta1OCtWiiESoTJp8jfqA-8" style="edgeStyle=orthogonalEdgeStyle;rounded=0;orthogonalLoop=1;jettySize=auto;html=1;exitX=0.5;exitY=1;exitDx=0;exitDy=0;entryX=0.5;entryY=0;entryDx=0;entryDy=0;" edge="1" parent="1" source="ta1OCtWiiESoTJp8jfqA-2" target="ta1OCtWiiESoTJp8jfqA-5">
          <mxGeometry relative="1" as="geometry" />
        </mxCell>
        <mxCell id="ta1OCtWiiESoTJp8jfqA-13" style="edgeStyle=orthogonalEdgeStyle;rounded=0;orthogonalLoop=1;jettySize=auto;html=1;exitX=1;exitY=0.5;exitDx=0;exitDy=0;entryX=0;entryY=0.5;entryDx=0;entryDy=0;" edge="1" parent="1" source="ta1OCtWiiESoTJp8jfqA-2" target="ta1OCtWiiESoTJp8jfqA-6">
          <mxGeometry relative="1" as="geometry" />
        </mxCell>
        <mxCell id="ta1OCtWiiESoTJp8jfqA-2" value="Common Service Operator" style="rounded=0;whiteSpace=wrap;html=1;fillColor=#e1d5e7;strokeColor=#9673a6;shadow=1;" vertex="1" parent="1">
          <mxGeometry x="210" y="210" width="120" height="60" as="geometry" />
        </mxCell>
        <mxCell id="ta1OCtWiiESoTJp8jfqA-4" value="1" style="text;html=1;strokeColor=none;fillColor=none;align=center;verticalAlign=middle;whiteSpace=wrap;rounded=0;" vertex="1" parent="1">
          <mxGeometry x="210" y="170" width="60" height="30" as="geometry" />
        </mxCell>
        <mxCell id="ta1OCtWiiESoTJp8jfqA-14" style="edgeStyle=orthogonalEdgeStyle;rounded=0;orthogonalLoop=1;jettySize=auto;html=1;exitX=1;exitY=0.5;exitDx=0;exitDy=0;" edge="1" parent="1" source="ta1OCtWiiESoTJp8jfqA-5" target="ta1OCtWiiESoTJp8jfqA-11">
          <mxGeometry relative="1" as="geometry" />
        </mxCell>
        <mxCell id="ta1OCtWiiESoTJp8jfqA-15" style="edgeStyle=orthogonalEdgeStyle;rounded=0;orthogonalLoop=1;jettySize=auto;html=1;exitX=1;exitY=0.5;exitDx=0;exitDy=0;entryX=0;entryY=0.5;entryDx=0;entryDy=0;" edge="1" parent="1" source="ta1OCtWiiESoTJp8jfqA-5" target="ta1OCtWiiESoTJp8jfqA-9">
          <mxGeometry relative="1" as="geometry">
            <Array as="points">
              <mxPoint x="370" y="340" />
              <mxPoint x="370" y="420" />
            </Array>
          </mxGeometry>
        </mxCell>
        <mxCell id="ta1OCtWiiESoTJp8jfqA-20" style="edgeStyle=orthogonalEdgeStyle;rounded=0;orthogonalLoop=1;jettySize=auto;html=1;exitX=0.5;exitY=1;exitDx=0;exitDy=0;entryX=0;entryY=0.5;entryDx=0;entryDy=0;" edge="1" parent="1" source="ta1OCtWiiESoTJp8jfqA-5" target="ta1OCtWiiESoTJp8jfqA-17">
          <mxGeometry relative="1" as="geometry" />
        </mxCell>
        <mxCell id="ta1OCtWiiESoTJp8jfqA-34" style="edgeStyle=orthogonalEdgeStyle;rounded=0;orthogonalLoop=1;jettySize=auto;html=1;entryX=0.5;entryY=1;entryDx=0;entryDy=0;" edge="1" parent="1" source="ta1OCtWiiESoTJp8jfqA-5" target="ta1OCtWiiESoTJp8jfqA-31">
          <mxGeometry relative="1" as="geometry">
            <Array as="points">
              <mxPoint x="170" y="340" />
              <mxPoint x="170" y="720" />
              <mxPoint x="470" y="720" />
            </Array>
          </mxGeometry>
        </mxCell>
        <mxCell id="ta1OCtWiiESoTJp8jfqA-35" style="edgeStyle=orthogonalEdgeStyle;rounded=0;orthogonalLoop=1;jettySize=auto;html=1;exitX=0.25;exitY=1;exitDx=0;exitDy=0;entryX=0.25;entryY=0;entryDx=0;entryDy=0;" edge="1" parent="1" source="ta1OCtWiiESoTJp8jfqA-5" target="ta1OCtWiiESoTJp8jfqA-22">
          <mxGeometry relative="1" as="geometry" />
        </mxCell>
        <mxCell id="ta1OCtWiiESoTJp8jfqA-37" style="edgeStyle=orthogonalEdgeStyle;rounded=0;orthogonalLoop=1;jettySize=auto;html=1;exitX=0;exitY=0.75;exitDx=0;exitDy=0;entryX=0;entryY=0.5;entryDx=0;entryDy=0;" edge="1" parent="1" source="ta1OCtWiiESoTJp8jfqA-5" target="ta1OCtWiiESoTJp8jfqA-36">
          <mxGeometry relative="1" as="geometry" />
        </mxCell>
        <mxCell id="ta1OCtWiiESoTJp8jfqA-41" style="edgeStyle=orthogonalEdgeStyle;rounded=0;orthogonalLoop=1;jettySize=auto;html=1;exitX=0.75;exitY=1;exitDx=0;exitDy=0;entryX=0;entryY=0.5;entryDx=0;entryDy=0;" edge="1" parent="1" source="ta1OCtWiiESoTJp8jfqA-5" target="ta1OCtWiiESoTJp8jfqA-39">
          <mxGeometry relative="1" as="geometry">
            <Array as="points">
              <mxPoint x="300" y="460" />
              <mxPoint x="340" y="460" />
              <mxPoint x="340" y="780" />
            </Array>
          </mxGeometry>
        </mxCell>
        <mxCell id="ta1OCtWiiESoTJp8jfqA-45" style="edgeStyle=orthogonalEdgeStyle;rounded=0;orthogonalLoop=1;jettySize=auto;html=1;exitX=1;exitY=1;exitDx=0;exitDy=0;entryX=0.5;entryY=1;entryDx=0;entryDy=0;" edge="1" parent="1" source="ta1OCtWiiESoTJp8jfqA-5" target="ta1OCtWiiESoTJp8jfqA-23">
          <mxGeometry relative="1" as="geometry">
            <Array as="points">
              <mxPoint x="360" y="370" />
              <mxPoint x="360" y="630" />
              <mxPoint x="470" y="630" />
            </Array>
          </mxGeometry>
        </mxCell>
        <mxCell id="ta1OCtWiiESoTJp8jfqA-48" style="edgeStyle=orthogonalEdgeStyle;rounded=0;orthogonalLoop=1;jettySize=auto;html=1;exitX=1;exitY=1;exitDx=0;exitDy=0;entryX=0;entryY=0.5;entryDx=0;entryDy=0;" edge="1" parent="1" source="ta1OCtWiiESoTJp8jfqA-5" target="ta1OCtWiiESoTJp8jfqA-46">
          <mxGeometry relative="1" as="geometry">
            <Array as="points">
              <mxPoint x="360" y="370" />
              <mxPoint x="360" y="630" />
              <mxPoint x="550" y="630" />
              <mxPoint x="550" y="670" />
            </Array>
          </mxGeometry>
        </mxCell>
        <mxCell id="ta1OCtWiiESoTJp8jfqA-83" style="edgeStyle=orthogonalEdgeStyle;rounded=0;orthogonalLoop=1;jettySize=auto;html=1;exitX=0;exitY=0.25;exitDx=0;exitDy=0;entryX=1;entryY=0.75;entryDx=0;entryDy=0;" edge="1" parent="1" source="ta1OCtWiiESoTJp8jfqA-5" target="ta1OCtWiiESoTJp8jfqA-78">
          <mxGeometry relative="1" as="geometry" />
        </mxCell>
        <mxCell id="ta1OCtWiiESoTJp8jfqA-84" style="edgeStyle=orthogonalEdgeStyle;rounded=0;orthogonalLoop=1;jettySize=auto;html=1;exitX=0;exitY=0.25;exitDx=0;exitDy=0;entryX=1;entryY=0.5;entryDx=0;entryDy=0;" edge="1" parent="1" source="ta1OCtWiiESoTJp8jfqA-5" target="ta1OCtWiiESoTJp8jfqA-74">
          <mxGeometry relative="1" as="geometry" />
        </mxCell>
        <mxCell id="ta1OCtWiiESoTJp8jfqA-5" value="ODLM" style="rounded=0;whiteSpace=wrap;html=1;fillColor=#e1d5e7;strokeColor=#9673a6;shadow=1;" vertex="1" parent="1">
          <mxGeometry x="210" y="310" width="120" height="60" as="geometry" />
        </mxCell>
        <mxCell id="ta1OCtWiiESoTJp8jfqA-21" style="edgeStyle=orthogonalEdgeStyle;rounded=0;orthogonalLoop=1;jettySize=auto;html=1;exitX=1;exitY=0.5;exitDx=0;exitDy=0;entryX=1;entryY=0.5;entryDx=0;entryDy=0;" edge="1" parent="1" source="ta1OCtWiiESoTJp8jfqA-6" target="ta1OCtWiiESoTJp8jfqA-9">
          <mxGeometry relative="1" as="geometry">
            <Array as="points">
              <mxPoint x="550" y="240" />
              <mxPoint x="550" y="420" />
            </Array>
          </mxGeometry>
        </mxCell>
        <mxCell id="ta1OCtWiiESoTJp8jfqA-6" value="&lt;div align=&quot;left&quot;&gt;commonService CR: {&lt;br&gt;&lt;/div&gt;&lt;div align=&quot;left&quot;&gt;size: &lt;br&gt;&lt;/div&gt;&lt;div align=&quot;left&quot;&gt;&lt;font color=&quot;#cc0000&quot;&gt;sharedDBSvcs&lt;/font&gt;: &lt;br&gt;&lt;/div&gt;&lt;div align=&quot;left&quot;&gt;}&lt;br&gt;&lt;/div&gt;" style="rounded=1;whiteSpace=wrap;html=1;fillColor=#dae8fc;strokeColor=#6c8ebf;shadow=1;align=left;" vertex="1" parent="1">
          <mxGeometry x="410" y="210" width="120" height="60" as="geometry" />
        </mxCell>
        <mxCell id="ta1OCtWiiESoTJp8jfqA-9" value="&lt;div align=&quot;center&quot;&gt;&lt;br&gt;&lt;/div&gt;" style="rounded=1;whiteSpace=wrap;html=1;fillColor=#dae8fc;strokeColor=#6c8ebf;shadow=1;align=left;" vertex="1" parent="1">
          <mxGeometry x="410" y="390" width="120" height="60" as="geometry" />
        </mxCell>
        <mxCell id="ta1OCtWiiESoTJp8jfqA-10" value="OperandConfig" style="text;html=1;strokeColor=none;fillColor=none;align=center;verticalAlign=middle;whiteSpace=wrap;rounded=0;" vertex="1" parent="1">
          <mxGeometry x="440" y="405" width="60" height="30" as="geometry" />
        </mxCell>
        <mxCell id="ta1OCtWiiESoTJp8jfqA-11" value="&lt;div align=&quot;center&quot;&gt;&lt;br&gt;&lt;/div&gt;" style="rounded=1;whiteSpace=wrap;html=1;fillColor=#dae8fc;strokeColor=#6c8ebf;shadow=1;align=left;" vertex="1" parent="1">
          <mxGeometry x="410" y="310" width="120" height="60" as="geometry" />
        </mxCell>
        <mxCell id="ta1OCtWiiESoTJp8jfqA-12" value="OperandRegistry" style="text;html=1;strokeColor=none;fillColor=none;align=center;verticalAlign=middle;whiteSpace=wrap;rounded=0;" vertex="1" parent="1">
          <mxGeometry x="440" y="325" width="60" height="30" as="geometry" />
        </mxCell>
        <mxCell id="ta1OCtWiiESoTJp8jfqA-17" value="&lt;div align=&quot;center&quot;&gt;&lt;br&gt;&lt;/div&gt;" style="rounded=1;whiteSpace=wrap;html=1;fillColor=#dae8fc;strokeColor=#6c8ebf;shadow=1;align=left;" vertex="1" parent="1">
          <mxGeometry x="410" y="470" width="120" height="60" as="geometry" />
        </mxCell>
        <mxCell id="ta1OCtWiiESoTJp8jfqA-18" value="IM OperandRequest" style="text;html=1;strokeColor=none;fillColor=none;align=center;verticalAlign=middle;whiteSpace=wrap;rounded=0;" vertex="1" parent="1">
          <mxGeometry x="440" y="485" width="60" height="30" as="geometry" />
        </mxCell>
        <mxCell id="ta1OCtWiiESoTJp8jfqA-30" style="edgeStyle=orthogonalEdgeStyle;rounded=0;orthogonalLoop=1;jettySize=auto;html=1;exitX=1;exitY=0.5;exitDx=0;exitDy=0;entryX=0;entryY=0.5;entryDx=0;entryDy=0;" edge="1" parent="1" source="ta1OCtWiiESoTJp8jfqA-22" target="ta1OCtWiiESoTJp8jfqA-23">
          <mxGeometry relative="1" as="geometry" />
        </mxCell>
        <mxCell id="ta1OCtWiiESoTJp8jfqA-33" style="edgeStyle=orthogonalEdgeStyle;rounded=0;orthogonalLoop=1;jettySize=auto;html=1;exitX=0.5;exitY=1;exitDx=0;exitDy=0;entryX=0;entryY=0.5;entryDx=0;entryDy=0;" edge="1" parent="1" source="ta1OCtWiiESoTJp8jfqA-22" target="ta1OCtWiiESoTJp8jfqA-31">
          <mxGeometry relative="1" as="geometry" />
        </mxCell>
        <mxCell id="r-Lgv9qhlFpyGqWtc3tt-4" style="edgeStyle=orthogonalEdgeStyle;rounded=0;orthogonalLoop=1;jettySize=auto;html=1;exitX=0.25;exitY=1;exitDx=0;exitDy=0;entryX=0;entryY=0.5;entryDx=0;entryDy=0;" edge="1" parent="1" source="ta1OCtWiiESoTJp8jfqA-22" target="r-Lgv9qhlFpyGqWtc3tt-1">
          <mxGeometry relative="1" as="geometry">
            <Array as="points">
              <mxPoint x="240" y="663" />
              <mxPoint x="8" y="663" />
              <mxPoint x="8" y="775" />
            </Array>
          </mxGeometry>
        </mxCell>
        <mxCell id="r-Lgv9qhlFpyGqWtc3tt-5" style="edgeStyle=orthogonalEdgeStyle;rounded=0;orthogonalLoop=1;jettySize=auto;html=1;exitX=0.25;exitY=1;exitDx=0;exitDy=0;entryX=0;entryY=0.75;entryDx=0;entryDy=0;" edge="1" parent="1" source="ta1OCtWiiESoTJp8jfqA-22" target="r-Lgv9qhlFpyGqWtc3tt-2">
          <mxGeometry relative="1" as="geometry">
            <Array as="points">
              <mxPoint x="240" y="660" />
              <mxPoint x="7" y="660" />
              <mxPoint x="7" y="870" />
            </Array>
          </mxGeometry>
        </mxCell>
        <mxCell id="r-Lgv9qhlFpyGqWtc3tt-15" style="edgeStyle=orthogonalEdgeStyle;rounded=0;orthogonalLoop=1;jettySize=auto;html=1;exitX=0.25;exitY=1;exitDx=0;exitDy=0;entryX=0;entryY=0.75;entryDx=0;entryDy=0;" edge="1" parent="1" source="ta1OCtWiiESoTJp8jfqA-22" target="r-Lgv9qhlFpyGqWtc3tt-3">
          <mxGeometry relative="1" as="geometry">
            <Array as="points">
              <mxPoint x="240" y="660" />
              <mxPoint x="8" y="660" />
              <mxPoint x="8" y="955" />
            </Array>
          </mxGeometry>
        </mxCell>
        <mxCell id="ta1OCtWiiESoTJp8jfqA-22" value="IM Operator" style="rounded=0;whiteSpace=wrap;html=1;fillColor=#e1d5e7;strokeColor=#9673a6;shadow=1;" vertex="1" parent="1">
          <mxGeometry x="210" y="520" width="120" height="60" as="geometry" />
        </mxCell>
        <mxCell id="yPQ33nrjyRzZVA9mc_M2-1" style="edgeStyle=orthogonalEdgeStyle;rounded=0;orthogonalLoop=1;jettySize=auto;html=1;exitX=0;exitY=0.75;exitDx=0;exitDy=0;entryX=0.5;entryY=0;entryDx=0;entryDy=0;dashed=1;" edge="1" parent="1" source="ta1OCtWiiESoTJp8jfqA-23" target="r-Lgv9qhlFpyGqWtc3tt-1">
          <mxGeometry relative="1" as="geometry">
            <Array as="points">
              <mxPoint x="330" y="595" />
              <mxPoint x="330" y="690" />
              <mxPoint x="80" y="690" />
            </Array>
          </mxGeometry>
        </mxCell>
        <mxCell id="yPQ33nrjyRzZVA9mc_M2-2" style="edgeStyle=orthogonalEdgeStyle;rounded=0;orthogonalLoop=1;jettySize=auto;html=1;exitX=0;exitY=0.75;exitDx=0;exitDy=0;entryX=1;entryY=0.25;entryDx=0;entryDy=0;dashed=1;" edge="1" parent="1" source="ta1OCtWiiESoTJp8jfqA-23" target="r-Lgv9qhlFpyGqWtc3tt-2">
          <mxGeometry relative="1" as="geometry">
            <Array as="points">
              <mxPoint x="390" y="595" />
              <mxPoint x="390" y="840" />
            </Array>
          </mxGeometry>
        </mxCell>
        <mxCell id="yPQ33nrjyRzZVA9mc_M2-3" style="edgeStyle=orthogonalEdgeStyle;rounded=0;orthogonalLoop=1;jettySize=auto;html=1;exitX=0;exitY=0.75;exitDx=0;exitDy=0;entryX=1;entryY=0.25;entryDx=0;entryDy=0;dashed=1;" edge="1" parent="1" source="ta1OCtWiiESoTJp8jfqA-23" target="r-Lgv9qhlFpyGqWtc3tt-3">
          <mxGeometry relative="1" as="geometry">
            <Array as="points">
              <mxPoint x="400" y="595" />
              <mxPoint x="400" y="925" />
            </Array>
          </mxGeometry>
        </mxCell>
        <mxCell id="ta1OCtWiiESoTJp8jfqA-23" value="&lt;div align=&quot;center&quot;&gt;&lt;br&gt;&lt;/div&gt;" style="rounded=1;whiteSpace=wrap;html=1;fillColor=#dae8fc;strokeColor=#6c8ebf;shadow=1;align=left;" vertex="1" parent="1">
          <mxGeometry x="410" y="550" width="120" height="60" as="geometry" />
        </mxCell>
        <mxCell id="ta1OCtWiiESoTJp8jfqA-24" value="&lt;font style=&quot;font-size: 12px;&quot; color=&quot;#cc0000&quot;&gt;im-datastore-edb-cm&lt;/font&gt;" style="text;html=1;strokeColor=none;fillColor=none;align=center;verticalAlign=middle;whiteSpace=wrap;rounded=0;" vertex="1" parent="1">
          <mxGeometry x="440" y="560" width="60" height="30" as="geometry" />
        </mxCell>
        <mxCell id="ta1OCtWiiESoTJp8jfqA-26" value="" style="ellipse;shape=cloud;whiteSpace=wrap;html=1;" vertex="1" parent="1">
          <mxGeometry x="600" y="470" width="170" height="90" as="geometry" />
        </mxCell>
        <mxCell id="ta1OCtWiiESoTJp8jfqA-27" value="" style="shape=flexArrow;endArrow=classic;html=1;rounded=0;" edge="1" parent="1">
          <mxGeometry width="50" height="50" relative="1" as="geometry">
            <mxPoint x="550" y="580" as="sourcePoint" />
            <mxPoint x="600" y="530" as="targetPoint" />
          </mxGeometry>
        </mxCell>
        <mxCell id="ta1OCtWiiESoTJp8jfqA-29" value="is_embedded_database: true" style="text;html=1;strokeColor=none;fillColor=none;align=center;verticalAlign=middle;whiteSpace=wrap;rounded=0;" vertex="1" parent="1">
          <mxGeometry x="650" y="500" width="60" height="30" as="geometry" />
        </mxCell>
        <mxCell id="ta1OCtWiiESoTJp8jfqA-31" value="&lt;div align=&quot;center&quot;&gt;&lt;br&gt;&lt;/div&gt;" style="rounded=1;whiteSpace=wrap;html=1;fillColor=#dae8fc;strokeColor=#6c8ebf;shadow=1;align=left;" vertex="1" parent="1">
          <mxGeometry x="410" y="640" width="120" height="60" as="geometry" />
        </mxCell>
        <mxCell id="ta1OCtWiiESoTJp8jfqA-32" value="&lt;font style=&quot;font-size: 12px;&quot; color=&quot;#cc0000&quot;&gt;Postgres OperandRequest&lt;/font&gt;" style="text;html=1;strokeColor=none;fillColor=none;align=center;verticalAlign=middle;whiteSpace=wrap;rounded=0;" vertex="1" parent="1">
          <mxGeometry x="440" y="655" width="60" height="30" as="geometry" />
        </mxCell>
        <mxCell id="ta1OCtWiiESoTJp8jfqA-44" style="edgeStyle=orthogonalEdgeStyle;rounded=0;orthogonalLoop=1;jettySize=auto;html=1;exitX=0.25;exitY=1;exitDx=0;exitDy=0;entryX=0.5;entryY=0;entryDx=0;entryDy=0;" edge="1" parent="1" source="ta1OCtWiiESoTJp8jfqA-36" target="ta1OCtWiiESoTJp8jfqA-43">
          <mxGeometry relative="1" as="geometry" />
        </mxCell>
        <mxCell id="ta1OCtWiiESoTJp8jfqA-36" value="Postgres Operator" style="rounded=0;whiteSpace=wrap;html=1;fillColor=#e1d5e7;strokeColor=#9673a6;shadow=1;" vertex="1" parent="1">
          <mxGeometry x="210" y="750" width="120" height="60" as="geometry" />
        </mxCell>
        <mxCell id="ta1OCtWiiESoTJp8jfqA-39" value="&lt;div align=&quot;center&quot;&gt;&lt;br&gt;&lt;/div&gt;" style="rounded=1;whiteSpace=wrap;html=1;fillColor=#dae8fc;strokeColor=#6c8ebf;shadow=1;align=left;" vertex="1" parent="1">
          <mxGeometry x="410" y="750" width="120" height="60" as="geometry" />
        </mxCell>
        <mxCell id="ta1OCtWiiESoTJp8jfqA-40" value="EDB Postgres Cluster" style="text;html=1;strokeColor=none;fillColor=none;align=center;verticalAlign=middle;whiteSpace=wrap;rounded=0;" vertex="1" parent="1">
          <mxGeometry x="440" y="760" width="60" height="30" as="geometry" />
        </mxCell>
        <mxCell id="ta1OCtWiiESoTJp8jfqA-42" style="edgeStyle=orthogonalEdgeStyle;rounded=0;orthogonalLoop=1;jettySize=auto;html=1;exitX=0.5;exitY=1;exitDx=0;exitDy=0;entryX=0.417;entryY=1;entryDx=0;entryDy=0;entryPerimeter=0;" edge="1" parent="1" source="ta1OCtWiiESoTJp8jfqA-36" target="ta1OCtWiiESoTJp8jfqA-39">
          <mxGeometry relative="1" as="geometry" />
        </mxCell>
        <mxCell id="ta1OCtWiiESoTJp8jfqA-43" value="&lt;font color=&quot;#cc0000&quot; style=&quot;font-size: 12px;&quot;&gt;cs-datastore-edb-1&lt;/font&gt;" style="rounded=0;whiteSpace=wrap;html=1;fillColor=#e1d5e7;strokeColor=#9673a6;shadow=1;" vertex="1" parent="1">
          <mxGeometry x="220" y="960" width="120" height="60" as="geometry" />
        </mxCell>
        <mxCell id="yPQ33nrjyRzZVA9mc_M2-5" style="edgeStyle=orthogonalEdgeStyle;rounded=0;orthogonalLoop=1;jettySize=auto;html=1;exitX=0.5;exitY=1;exitDx=0;exitDy=0;entryX=1;entryY=0.75;entryDx=0;entryDy=0;dashed=1;" edge="1" parent="1" source="ta1OCtWiiESoTJp8jfqA-46" target="r-Lgv9qhlFpyGqWtc3tt-2">
          <mxGeometry relative="1" as="geometry" />
        </mxCell>
        <mxCell id="yPQ33nrjyRzZVA9mc_M2-6" style="edgeStyle=orthogonalEdgeStyle;rounded=0;orthogonalLoop=1;jettySize=auto;html=1;exitX=0.5;exitY=1;exitDx=0;exitDy=0;entryX=0.5;entryY=1;entryDx=0;entryDy=0;dashed=1;" edge="1" parent="1" source="ta1OCtWiiESoTJp8jfqA-46" target="r-Lgv9qhlFpyGqWtc3tt-1">
          <mxGeometry relative="1" as="geometry">
            <Array as="points">
              <mxPoint x="640" y="820" />
              <mxPoint x="80" y="820" />
            </Array>
          </mxGeometry>
        </mxCell>
        <mxCell id="ta1OCtWiiESoTJp8jfqA-46" value="&lt;div align=&quot;center&quot;&gt;&lt;br&gt;&lt;/div&gt;" style="rounded=1;whiteSpace=wrap;html=1;fillColor=#dae8fc;strokeColor=#6c8ebf;shadow=1;align=left;" vertex="1" parent="1">
          <mxGeometry x="580" y="640" width="120" height="60" as="geometry" />
        </mxCell>
        <mxCell id="ta1OCtWiiESoTJp8jfqA-47" value="&lt;font style=&quot;font-size: 12px;&quot; color=&quot;#cc0000&quot;&gt;im-datastore-edb-secret&lt;/font&gt;" style="text;html=1;strokeColor=none;fillColor=none;align=center;verticalAlign=middle;whiteSpace=wrap;rounded=0;" vertex="1" parent="1">
          <mxGeometry x="600" y="655" width="70" height="30" as="geometry" />
        </mxCell>
        <mxCell id="ta1OCtWiiESoTJp8jfqA-49" value="" style="ellipse;shape=cloud;whiteSpace=wrap;html=1;" vertex="1" parent="1">
          <mxGeometry x="700" y="563" width="150" height="75" as="geometry" />
        </mxCell>
        <mxCell id="ta1OCtWiiESoTJp8jfqA-50" value="&lt;div&gt;dbusername:&lt;/div&gt;&lt;div&gt;dbuserpassword:&lt;br&gt;&lt;/div&gt;" style="text;html=1;strokeColor=none;fillColor=none;align=center;verticalAlign=middle;whiteSpace=wrap;rounded=0;" vertex="1" parent="1">
          <mxGeometry x="750" y="585.5" width="60" height="30" as="geometry" />
        </mxCell>
        <mxCell id="ta1OCtWiiESoTJp8jfqA-51" value="" style="shape=flexArrow;endArrow=classic;html=1;rounded=0;" edge="1" parent="1">
          <mxGeometry width="50" height="50" relative="1" as="geometry">
            <mxPoint x="710" y="677.5" as="sourcePoint" />
            <mxPoint x="760" y="640" as="targetPoint" />
          </mxGeometry>
        </mxCell>
        <mxCell id="ta1OCtWiiESoTJp8jfqA-52" value="" style="ellipse;shape=cloud;whiteSpace=wrap;html=1;" vertex="1" parent="1">
          <mxGeometry x="610" y="250" width="170" height="90" as="geometry" />
        </mxCell>
        <mxCell id="ta1OCtWiiESoTJp8jfqA-53" value="&lt;div&gt;&quot;IM,Zen&quot;,&lt;/div&gt;&lt;div&gt;&quot;IM&quot;,&lt;/div&gt;&lt;div&gt;&quot;Zen&quot;,&lt;/div&gt;&lt;div&gt;&quot;Keycloak&quot;&lt;br&gt;&lt;/div&gt;" style="text;html=1;strokeColor=none;fillColor=none;align=center;verticalAlign=middle;whiteSpace=wrap;rounded=0;" vertex="1" parent="1">
          <mxGeometry x="660" y="280" width="60" height="30" as="geometry" />
        </mxCell>
        <mxCell id="ta1OCtWiiESoTJp8jfqA-54" value="" style="shape=flexArrow;endArrow=classic;html=1;rounded=0;" edge="1" parent="1" target="ta1OCtWiiESoTJp8jfqA-52">
          <mxGeometry width="50" height="50" relative="1" as="geometry">
            <mxPoint x="560" y="250" as="sourcePoint" />
            <mxPoint x="610" y="200" as="targetPoint" />
          </mxGeometry>
        </mxCell>
        <mxCell id="ta1OCtWiiESoTJp8jfqA-55" value="2.1" style="text;html=1;strokeColor=none;fillColor=none;align=center;verticalAlign=middle;whiteSpace=wrap;rounded=0;" vertex="1" parent="1">
          <mxGeometry x="330" y="210" width="60" height="30" as="geometry" />
        </mxCell>
        <mxCell id="ta1OCtWiiESoTJp8jfqA-56" value="2.2" style="text;html=1;strokeColor=none;fillColor=none;align=center;verticalAlign=middle;whiteSpace=wrap;rounded=0;" vertex="1" parent="1">
          <mxGeometry x="260" y="270" width="60" height="30" as="geometry" />
        </mxCell>
        <mxCell id="ta1OCtWiiESoTJp8jfqA-58" value="3" style="text;html=1;strokeColor=none;fillColor=none;align=center;verticalAlign=middle;whiteSpace=wrap;rounded=0;" vertex="1" parent="1">
          <mxGeometry x="330" y="310" width="60" height="30" as="geometry" />
        </mxCell>
        <mxCell id="ta1OCtWiiESoTJp8jfqA-61" value="4" style="text;html=1;strokeColor=none;fillColor=none;align=center;verticalAlign=middle;whiteSpace=wrap;rounded=0;" vertex="1" parent="1">
          <mxGeometry x="350" y="90" width="60" height="30" as="geometry" />
        </mxCell>
        <mxCell id="ta1OCtWiiESoTJp8jfqA-62" value="4.1" style="text;html=1;strokeColor=none;fillColor=none;align=center;verticalAlign=middle;whiteSpace=wrap;rounded=0;" vertex="1" parent="1">
          <mxGeometry x="350" y="130" width="60" height="30" as="geometry" />
        </mxCell>
        <mxCell id="ta1OCtWiiESoTJp8jfqA-63" value="5" style="text;html=1;strokeColor=none;fillColor=none;align=center;verticalAlign=middle;whiteSpace=wrap;rounded=0;" vertex="1" parent="1">
          <mxGeometry x="260" y="470" width="60" height="30" as="geometry" />
        </mxCell>
        <mxCell id="ta1OCtWiiESoTJp8jfqA-64" value="2.1.2" style="text;html=1;strokeColor=none;fillColor=none;align=center;verticalAlign=middle;whiteSpace=wrap;rounded=0;" vertex="1" parent="1">
          <mxGeometry x="500" y="280" width="60" height="30" as="geometry" />
        </mxCell>
        <mxCell id="ta1OCtWiiESoTJp8jfqA-65" value="6" style="text;html=1;strokeColor=none;fillColor=none;align=center;verticalAlign=middle;whiteSpace=wrap;rounded=0;" vertex="1" parent="1">
          <mxGeometry x="200" y="470" width="60" height="30" as="geometry" />
        </mxCell>
        <mxCell id="ta1OCtWiiESoTJp8jfqA-66" value="7" style="text;html=1;strokeColor=none;fillColor=none;align=center;verticalAlign=middle;whiteSpace=wrap;rounded=0;" vertex="1" parent="1">
          <mxGeometry x="365" y="535" width="60" height="30" as="geometry" />
        </mxCell>
        <mxCell id="ta1OCtWiiESoTJp8jfqA-67" value="8" style="text;html=1;strokeColor=none;fillColor=none;align=center;verticalAlign=middle;whiteSpace=wrap;rounded=0;" vertex="1" parent="1">
          <mxGeometry x="260" y="640" width="60" height="30" as="geometry" />
        </mxCell>
        <mxCell id="ta1OCtWiiESoTJp8jfqA-68" value="9" style="text;html=1;strokeColor=none;fillColor=none;align=center;verticalAlign=middle;whiteSpace=wrap;rounded=0;" vertex="1" parent="1">
          <mxGeometry x="230" y="700" width="60" height="30" as="geometry" />
        </mxCell>
        <mxCell id="ta1OCtWiiESoTJp8jfqA-69" value="10" style="text;html=1;strokeColor=none;fillColor=none;align=center;verticalAlign=middle;whiteSpace=wrap;rounded=0;" vertex="1" parent="1">
          <mxGeometry x="170" y="440" width="60" height="30" as="geometry" />
        </mxCell>
        <mxCell id="ta1OCtWiiESoTJp8jfqA-70" value="11" style="text;html=1;strokeColor=none;fillColor=none;align=center;verticalAlign=middle;whiteSpace=wrap;rounded=0;" vertex="1" parent="1">
          <mxGeometry x="330" y="750" width="60" height="30" as="geometry" />
        </mxCell>
        <mxCell id="ta1OCtWiiESoTJp8jfqA-71" value="14" style="text;html=1;strokeColor=none;fillColor=none;align=center;verticalAlign=middle;whiteSpace=wrap;rounded=0;" vertex="1" parent="1">
          <mxGeometry x="350" y="608" width="60" height="30" as="geometry" />
        </mxCell>
        <mxCell id="ta1OCtWiiESoTJp8jfqA-72" value="13" style="text;html=1;strokeColor=none;fillColor=none;align=center;verticalAlign=middle;whiteSpace=wrap;rounded=0;" vertex="1" parent="1">
          <mxGeometry x="330" y="805" width="60" height="30" as="geometry" />
        </mxCell>
        <mxCell id="ta1OCtWiiESoTJp8jfqA-82" style="edgeStyle=orthogonalEdgeStyle;rounded=0;orthogonalLoop=1;jettySize=auto;html=1;exitX=0.5;exitY=1;exitDx=0;exitDy=0;entryX=0;entryY=0.5;entryDx=0;entryDy=0;" edge="1" parent="1" source="ta1OCtWiiESoTJp8jfqA-73" target="ta1OCtWiiESoTJp8jfqA-74">
          <mxGeometry relative="1" as="geometry">
            <Array as="points">
              <mxPoint x="80" y="380" />
              <mxPoint x="10" y="380" />
              <mxPoint x="10" y="610" />
            </Array>
          </mxGeometry>
        </mxCell>
        <mxCell id="ta1OCtWiiESoTJp8jfqA-87" style="edgeStyle=orthogonalEdgeStyle;rounded=0;orthogonalLoop=1;jettySize=auto;html=1;exitX=0.5;exitY=1;exitDx=0;exitDy=0;entryX=0;entryY=0.5;entryDx=0;entryDy=0;" edge="1" parent="1" source="ta1OCtWiiESoTJp8jfqA-73" target="ta1OCtWiiESoTJp8jfqA-78">
          <mxGeometry relative="1" as="geometry">
            <Array as="points">
              <mxPoint x="80" y="380" />
              <mxPoint x="10" y="380" />
              <mxPoint x="10" y="535" />
            </Array>
          </mxGeometry>
        </mxCell>
        <mxCell id="ta1OCtWiiESoTJp8jfqA-73" value="Cert Manager" style="rounded=0;whiteSpace=wrap;html=1;fillColor=#e1d5e7;strokeColor=#9673a6;shadow=1;" vertex="1" parent="1">
          <mxGeometry x="20" y="210" width="120" height="60" as="geometry" />
        </mxCell>
        <mxCell id="ta1OCtWiiESoTJp8jfqA-74" value="&lt;div align=&quot;center&quot;&gt;&lt;br&gt;&lt;/div&gt;" style="rounded=1;whiteSpace=wrap;html=1;fillColor=#dae8fc;strokeColor=#6c8ebf;shadow=1;align=left;" vertex="1" parent="1">
          <mxGeometry x="20" y="580" width="120" height="60" as="geometry" />
        </mxCell>
        <mxCell id="ta1OCtWiiESoTJp8jfqA-75" value="edb-server-certificate" style="text;html=1;strokeColor=none;fillColor=none;align=center;verticalAlign=middle;whiteSpace=wrap;rounded=0;" vertex="1" parent="1">
          <mxGeometry x="50" y="590" width="60" height="30" as="geometry" />
        </mxCell>
        <mxCell id="ta1OCtWiiESoTJp8jfqA-76" value="&lt;div align=&quot;center&quot;&gt;&lt;br&gt;&lt;/div&gt;" style="rounded=1;whiteSpace=wrap;html=1;fillColor=#dae8fc;strokeColor=#6c8ebf;shadow=1;align=left;" vertex="1" parent="1">
          <mxGeometry x="20" y="425" width="120" height="60" as="geometry" />
        </mxCell>
        <mxCell id="ta1OCtWiiESoTJp8jfqA-77" value="cs-ca-certificate" style="text;html=1;strokeColor=none;fillColor=none;align=center;verticalAlign=middle;whiteSpace=wrap;rounded=0;" vertex="1" parent="1">
          <mxGeometry x="40" y="440.5" width="60" height="30" as="geometry" />
        </mxCell>
        <mxCell id="ta1OCtWiiESoTJp8jfqA-78" value="&lt;div align=&quot;center&quot;&gt;&lt;br&gt;&lt;/div&gt;" style="rounded=1;whiteSpace=wrap;html=1;fillColor=#dae8fc;strokeColor=#6c8ebf;shadow=1;align=left;" vertex="1" parent="1">
          <mxGeometry x="20" y="505" width="120" height="60" as="geometry" />
        </mxCell>
        <mxCell id="ta1OCtWiiESoTJp8jfqA-79" value="edb-replica-streaming-certificate" style="text;html=1;strokeColor=none;fillColor=none;align=center;verticalAlign=middle;whiteSpace=wrap;rounded=0;" vertex="1" parent="1">
          <mxGeometry x="50" y="520" width="60" height="30" as="geometry" />
        </mxCell>
        <mxCell id="ta1OCtWiiESoTJp8jfqA-80" style="edgeStyle=orthogonalEdgeStyle;rounded=0;orthogonalLoop=1;jettySize=auto;html=1;exitX=0.5;exitY=1;exitDx=0;exitDy=0;entryX=0.442;entryY=0.017;entryDx=0;entryDy=0;entryPerimeter=0;" edge="1" parent="1" source="ta1OCtWiiESoTJp8jfqA-76" target="ta1OCtWiiESoTJp8jfqA-78">
          <mxGeometry relative="1" as="geometry" />
        </mxCell>
        <mxCell id="ta1OCtWiiESoTJp8jfqA-81" style="edgeStyle=orthogonalEdgeStyle;rounded=0;orthogonalLoop=1;jettySize=auto;html=1;exitX=1;exitY=0.5;exitDx=0;exitDy=0;entryX=0.992;entryY=0.633;entryDx=0;entryDy=0;entryPerimeter=0;" edge="1" parent="1" source="ta1OCtWiiESoTJp8jfqA-76" target="ta1OCtWiiESoTJp8jfqA-74">
          <mxGeometry relative="1" as="geometry" />
        </mxCell>
        <mxCell id="ta1OCtWiiESoTJp8jfqA-85" value="12" style="text;html=1;strokeColor=none;fillColor=none;align=center;verticalAlign=middle;whiteSpace=wrap;rounded=0;" vertex="1" parent="1">
          <mxGeometry x="120" y="390" width="60" height="30" as="geometry" />
        </mxCell>
        <mxCell id="ta1OCtWiiESoTJp8jfqA-86" value="12.1" style="text;html=1;strokeColor=none;fillColor=none;align=center;verticalAlign=middle;whiteSpace=wrap;rounded=0;" vertex="1" parent="1">
          <mxGeometry x="10" y="380" width="60" height="30" as="geometry" />
        </mxCell>
        <mxCell id="r-Lgv9qhlFpyGqWtc3tt-11" style="edgeStyle=orthogonalEdgeStyle;rounded=0;orthogonalLoop=1;jettySize=auto;html=1;exitX=1;exitY=0.5;exitDx=0;exitDy=0;entryX=0;entryY=0.5;entryDx=0;entryDy=0;" edge="1" parent="1" source="r-Lgv9qhlFpyGqWtc3tt-1" target="ta1OCtWiiESoTJp8jfqA-43">
          <mxGeometry relative="1" as="geometry" />
        </mxCell>
        <mxCell id="r-Lgv9qhlFpyGqWtc3tt-1" value="platform auth service " style="rounded=0;whiteSpace=wrap;html=1;fillColor=#e1d5e7;strokeColor=#9673a6;shadow=1;" vertex="1" parent="1">
          <mxGeometry x="20" y="745" width="120" height="60" as="geometry" />
        </mxCell>
        <mxCell id="r-Lgv9qhlFpyGqWtc3tt-2" value="platform identity provider " style="rounded=0;whiteSpace=wrap;html=1;fillColor=#e1d5e7;strokeColor=#9673a6;shadow=1;" vertex="1" parent="1">
          <mxGeometry x="20" y="825" width="120" height="60" as="geometry" />
        </mxCell>
        <mxCell id="r-Lgv9qhlFpyGqWtc3tt-12" style="edgeStyle=orthogonalEdgeStyle;rounded=0;orthogonalLoop=1;jettySize=auto;html=1;exitX=1;exitY=0.5;exitDx=0;exitDy=0;" edge="1" parent="1" source="r-Lgv9qhlFpyGqWtc3tt-3" target="ta1OCtWiiESoTJp8jfqA-43">
          <mxGeometry relative="1" as="geometry" />
        </mxCell>
        <mxCell id="r-Lgv9qhlFpyGqWtc3tt-17" style="edgeStyle=orthogonalEdgeStyle;rounded=0;orthogonalLoop=1;jettySize=auto;html=1;exitX=0;exitY=0.75;exitDx=0;exitDy=0;entryX=0;entryY=0.75;entryDx=0;entryDy=0;" edge="1" parent="1" source="r-Lgv9qhlFpyGqWtc3tt-3" target="ta1OCtWiiESoTJp8jfqA-43">
          <mxGeometry relative="1" as="geometry">
            <Array as="points">
              <mxPoint x="11" y="955" />
              <mxPoint x="11" y="1005" />
            </Array>
          </mxGeometry>
        </mxCell>
        <mxCell id="r-Lgv9qhlFpyGqWtc3tt-3" value="platform identity manager " style="rounded=0;whiteSpace=wrap;html=1;fillColor=#e1d5e7;strokeColor=#9673a6;shadow=1;" vertex="1" parent="1">
          <mxGeometry x="20" y="910" width="120" height="60" as="geometry" />
        </mxCell>
        <mxCell id="r-Lgv9qhlFpyGqWtc3tt-7" value="8,1" style="text;html=1;strokeColor=none;fillColor=none;align=center;verticalAlign=middle;whiteSpace=wrap;rounded=0;" vertex="1" parent="1">
          <mxGeometry x="190" y="620" width="60" height="30" as="geometry" />
        </mxCell>
        <mxCell id="r-Lgv9qhlFpyGqWtc3tt-9" style="edgeStyle=orthogonalEdgeStyle;rounded=0;orthogonalLoop=1;jettySize=auto;html=1;exitX=1;exitY=0.5;exitDx=0;exitDy=0;entryX=0;entryY=0.5;entryDx=0;entryDy=0;" edge="1" parent="1" source="r-Lgv9qhlFpyGqWtc3tt-2" target="ta1OCtWiiESoTJp8jfqA-43">
          <mxGeometry relative="1" as="geometry" />
        </mxCell>
        <mxCell id="r-Lgv9qhlFpyGqWtc3tt-16" value="14" style="text;html=1;strokeColor=none;fillColor=none;align=center;verticalAlign=middle;whiteSpace=wrap;rounded=0;" vertex="1" parent="1">
          <mxGeometry x="220" y="920" width="60" height="30" as="geometry" />
        </mxCell>
        <mxCell id="yPQ33nrjyRzZVA9mc_M2-4" style="edgeStyle=orthogonalEdgeStyle;rounded=0;orthogonalLoop=1;jettySize=auto;html=1;exitX=0.5;exitY=1;exitDx=0;exitDy=0;entryX=0.45;entryY=0.983;entryDx=0;entryDy=0;entryPerimeter=0;dashed=1;" edge="1" parent="1" source="ta1OCtWiiESoTJp8jfqA-46" target="r-Lgv9qhlFpyGqWtc3tt-3">
          <mxGeometry relative="1" as="geometry">
            <Array as="points">
              <mxPoint x="640" y="1040" />
              <mxPoint x="74" y="1040" />
            </Array>
          </mxGeometry>
        </mxCell>
      </root>
    </mxGraphModel>
  </diagram>
  <diagram name="zen-internal-postgres" id="lxbFkgLJnvhW4PnDqS40">
    <mxGraphModel dx="1599" dy="944" grid="0" gridSize="10" guides="1" tooltips="1" connect="1" arrows="1" fold="1" page="1" pageScale="1" pageWidth="850" pageHeight="1100" math="0" shadow="0">
      <root>
        <mxCell id="0FYDrWjgdQrZKtSJt3R1-0" />
        <mxCell id="0FYDrWjgdQrZKtSJt3R1-1" parent="0FYDrWjgdQrZKtSJt3R1-0" />
        <mxCell id="0FYDrWjgdQrZKtSJt3R1-2" style="edgeStyle=orthogonalEdgeStyle;rounded=0;orthogonalLoop=1;jettySize=auto;html=1;exitX=0.5;exitY=1;exitDx=0;exitDy=0;entryX=0.5;entryY=0;entryDx=0;entryDy=0;" edge="1" parent="0FYDrWjgdQrZKtSJt3R1-1" source="0FYDrWjgdQrZKtSJt3R1-5" target="0FYDrWjgdQrZKtSJt3R1-8">
          <mxGeometry relative="1" as="geometry" />
        </mxCell>
        <mxCell id="0FYDrWjgdQrZKtSJt3R1-3" style="edgeStyle=orthogonalEdgeStyle;rounded=0;orthogonalLoop=1;jettySize=auto;html=1;exitX=1;exitY=0.5;exitDx=0;exitDy=0;entryX=0.5;entryY=0;entryDx=0;entryDy=0;" edge="1" parent="0FYDrWjgdQrZKtSJt3R1-1" source="0FYDrWjgdQrZKtSJt3R1-5" target="0FYDrWjgdQrZKtSJt3R1-23">
          <mxGeometry relative="1" as="geometry" />
        </mxCell>
        <mxCell id="0FYDrWjgdQrZKtSJt3R1-4" style="edgeStyle=orthogonalEdgeStyle;rounded=0;orthogonalLoop=1;jettySize=auto;html=1;exitX=1;exitY=0.25;exitDx=0;exitDy=0;entryX=1;entryY=0.5;entryDx=0;entryDy=0;" edge="1" parent="0FYDrWjgdQrZKtSJt3R1-1" source="0FYDrWjgdQrZKtSJt3R1-5" target="0FYDrWjgdQrZKtSJt3R1-28">
          <mxGeometry relative="1" as="geometry">
            <Array as="points">
              <mxPoint x="580" y="115" />
              <mxPoint x="580" y="500" />
            </Array>
          </mxGeometry>
        </mxCell>
        <mxCell id="0FYDrWjgdQrZKtSJt3R1-5" value="Cloud Pak Operator " style="rounded=0;whiteSpace=wrap;html=1;fillColor=#e1d5e7;strokeColor=#9673a6;shadow=1;" vertex="1" parent="0FYDrWjgdQrZKtSJt3R1-1">
          <mxGeometry x="210" y="100" width="120" height="60" as="geometry" />
        </mxCell>
        <mxCell id="0FYDrWjgdQrZKtSJt3R1-6" style="edgeStyle=orthogonalEdgeStyle;rounded=0;orthogonalLoop=1;jettySize=auto;html=1;exitX=0.5;exitY=1;exitDx=0;exitDy=0;entryX=0.5;entryY=0;entryDx=0;entryDy=0;" edge="1" parent="0FYDrWjgdQrZKtSJt3R1-1" source="0FYDrWjgdQrZKtSJt3R1-8" target="0FYDrWjgdQrZKtSJt3R1-21">
          <mxGeometry relative="1" as="geometry" />
        </mxCell>
        <mxCell id="0FYDrWjgdQrZKtSJt3R1-7" style="edgeStyle=orthogonalEdgeStyle;rounded=0;orthogonalLoop=1;jettySize=auto;html=1;exitX=1;exitY=0.5;exitDx=0;exitDy=0;entryX=0;entryY=0.5;entryDx=0;entryDy=0;" edge="1" parent="0FYDrWjgdQrZKtSJt3R1-1" source="0FYDrWjgdQrZKtSJt3R1-8" target="0FYDrWjgdQrZKtSJt3R1-23">
          <mxGeometry relative="1" as="geometry" />
        </mxCell>
        <mxCell id="0FYDrWjgdQrZKtSJt3R1-8" value="Common Service Operator" style="rounded=0;whiteSpace=wrap;html=1;fillColor=#e1d5e7;strokeColor=#9673a6;shadow=1;" vertex="1" parent="0FYDrWjgdQrZKtSJt3R1-1">
          <mxGeometry x="210" y="210" width="120" height="60" as="geometry" />
        </mxCell>
        <mxCell id="0FYDrWjgdQrZKtSJt3R1-9" value="1" style="text;html=1;strokeColor=none;fillColor=none;align=center;verticalAlign=middle;whiteSpace=wrap;rounded=0;" vertex="1" parent="0FYDrWjgdQrZKtSJt3R1-1">
          <mxGeometry x="210" y="170" width="60" height="30" as="geometry" />
        </mxCell>
        <mxCell id="0FYDrWjgdQrZKtSJt3R1-10" style="edgeStyle=orthogonalEdgeStyle;rounded=0;orthogonalLoop=1;jettySize=auto;html=1;exitX=1;exitY=0.5;exitDx=0;exitDy=0;" edge="1" parent="0FYDrWjgdQrZKtSJt3R1-1" source="0FYDrWjgdQrZKtSJt3R1-21" target="0FYDrWjgdQrZKtSJt3R1-26">
          <mxGeometry relative="1" as="geometry" />
        </mxCell>
        <mxCell id="0FYDrWjgdQrZKtSJt3R1-11" style="edgeStyle=orthogonalEdgeStyle;rounded=0;orthogonalLoop=1;jettySize=auto;html=1;exitX=1;exitY=0.5;exitDx=0;exitDy=0;entryX=0;entryY=0.5;entryDx=0;entryDy=0;" edge="1" parent="0FYDrWjgdQrZKtSJt3R1-1" source="0FYDrWjgdQrZKtSJt3R1-21" target="0FYDrWjgdQrZKtSJt3R1-24">
          <mxGeometry relative="1" as="geometry">
            <Array as="points">
              <mxPoint x="370" y="340" />
              <mxPoint x="370" y="420" />
            </Array>
          </mxGeometry>
        </mxCell>
        <mxCell id="0FYDrWjgdQrZKtSJt3R1-12" style="edgeStyle=orthogonalEdgeStyle;rounded=0;orthogonalLoop=1;jettySize=auto;html=1;exitX=0.5;exitY=1;exitDx=0;exitDy=0;entryX=0;entryY=0.5;entryDx=0;entryDy=0;" edge="1" parent="0FYDrWjgdQrZKtSJt3R1-1" source="0FYDrWjgdQrZKtSJt3R1-21" target="0FYDrWjgdQrZKtSJt3R1-28">
          <mxGeometry relative="1" as="geometry" />
        </mxCell>
        <mxCell id="0FYDrWjgdQrZKtSJt3R1-13" style="edgeStyle=orthogonalEdgeStyle;rounded=0;orthogonalLoop=1;jettySize=auto;html=1;entryX=0.5;entryY=1;entryDx=0;entryDy=0;" edge="1" parent="0FYDrWjgdQrZKtSJt3R1-1" source="0FYDrWjgdQrZKtSJt3R1-21" target="0FYDrWjgdQrZKtSJt3R1-44">
          <mxGeometry relative="1" as="geometry">
            <Array as="points">
              <mxPoint x="170" y="340" />
              <mxPoint x="170" y="720" />
              <mxPoint x="470" y="720" />
            </Array>
          </mxGeometry>
        </mxCell>
        <mxCell id="0FYDrWjgdQrZKtSJt3R1-14" style="edgeStyle=orthogonalEdgeStyle;rounded=0;orthogonalLoop=1;jettySize=auto;html=1;exitX=0.25;exitY=1;exitDx=0;exitDy=0;entryX=0.25;entryY=0;entryDx=0;entryDy=0;" edge="1" parent="0FYDrWjgdQrZKtSJt3R1-1" source="0FYDrWjgdQrZKtSJt3R1-21" target="0FYDrWjgdQrZKtSJt3R1-35">
          <mxGeometry relative="1" as="geometry" />
        </mxCell>
        <mxCell id="0FYDrWjgdQrZKtSJt3R1-15" style="edgeStyle=orthogonalEdgeStyle;rounded=0;orthogonalLoop=1;jettySize=auto;html=1;exitX=0;exitY=0.75;exitDx=0;exitDy=0;entryX=0;entryY=0.5;entryDx=0;entryDy=0;" edge="1" parent="0FYDrWjgdQrZKtSJt3R1-1" source="0FYDrWjgdQrZKtSJt3R1-21" target="0FYDrWjgdQrZKtSJt3R1-47">
          <mxGeometry relative="1" as="geometry" />
        </mxCell>
        <mxCell id="0FYDrWjgdQrZKtSJt3R1-16" style="edgeStyle=orthogonalEdgeStyle;rounded=0;orthogonalLoop=1;jettySize=auto;html=1;exitX=0.75;exitY=1;exitDx=0;exitDy=0;entryX=0;entryY=0.5;entryDx=0;entryDy=0;" edge="1" parent="0FYDrWjgdQrZKtSJt3R1-1" source="0FYDrWjgdQrZKtSJt3R1-21" target="0FYDrWjgdQrZKtSJt3R1-48">
          <mxGeometry relative="1" as="geometry">
            <Array as="points">
              <mxPoint x="300" y="460" />
              <mxPoint x="340" y="460" />
              <mxPoint x="340" y="780" />
            </Array>
          </mxGeometry>
        </mxCell>
        <mxCell id="0FYDrWjgdQrZKtSJt3R1-17" style="edgeStyle=orthogonalEdgeStyle;rounded=0;orthogonalLoop=1;jettySize=auto;html=1;exitX=1;exitY=1;exitDx=0;exitDy=0;entryX=0.5;entryY=1;entryDx=0;entryDy=0;" edge="1" parent="0FYDrWjgdQrZKtSJt3R1-1" source="0FYDrWjgdQrZKtSJt3R1-21" target="0FYDrWjgdQrZKtSJt3R1-39">
          <mxGeometry relative="1" as="geometry">
            <Array as="points">
              <mxPoint x="360" y="370" />
              <mxPoint x="360" y="630" />
              <mxPoint x="470" y="630" />
            </Array>
          </mxGeometry>
        </mxCell>
        <mxCell id="0FYDrWjgdQrZKtSJt3R1-18" style="edgeStyle=orthogonalEdgeStyle;rounded=0;orthogonalLoop=1;jettySize=auto;html=1;exitX=1;exitY=1;exitDx=0;exitDy=0;entryX=0;entryY=0.5;entryDx=0;entryDy=0;" edge="1" parent="0FYDrWjgdQrZKtSJt3R1-1" source="0FYDrWjgdQrZKtSJt3R1-21" target="0FYDrWjgdQrZKtSJt3R1-54">
          <mxGeometry relative="1" as="geometry">
            <Array as="points">
              <mxPoint x="360" y="370" />
              <mxPoint x="360" y="630" />
              <mxPoint x="550" y="630" />
              <mxPoint x="550" y="670" />
            </Array>
          </mxGeometry>
        </mxCell>
        <mxCell id="0FYDrWjgdQrZKtSJt3R1-19" style="edgeStyle=orthogonalEdgeStyle;rounded=0;orthogonalLoop=1;jettySize=auto;html=1;exitX=0;exitY=0.25;exitDx=0;exitDy=0;entryX=1;entryY=0.75;entryDx=0;entryDy=0;" edge="1" parent="0FYDrWjgdQrZKtSJt3R1-1" source="0FYDrWjgdQrZKtSJt3R1-21" target="0FYDrWjgdQrZKtSJt3R1-84">
          <mxGeometry relative="1" as="geometry" />
        </mxCell>
        <mxCell id="0FYDrWjgdQrZKtSJt3R1-20" style="edgeStyle=orthogonalEdgeStyle;rounded=0;orthogonalLoop=1;jettySize=auto;html=1;exitX=0;exitY=0.25;exitDx=0;exitDy=0;entryX=1;entryY=0.5;entryDx=0;entryDy=0;" edge="1" parent="0FYDrWjgdQrZKtSJt3R1-1" source="0FYDrWjgdQrZKtSJt3R1-21" target="0FYDrWjgdQrZKtSJt3R1-80">
          <mxGeometry relative="1" as="geometry" />
        </mxCell>
        <mxCell id="0FYDrWjgdQrZKtSJt3R1-21" value="ODLM" style="rounded=0;whiteSpace=wrap;html=1;fillColor=#e1d5e7;strokeColor=#9673a6;shadow=1;" vertex="1" parent="0FYDrWjgdQrZKtSJt3R1-1">
          <mxGeometry x="210" y="310" width="120" height="60" as="geometry" />
        </mxCell>
        <mxCell id="0FYDrWjgdQrZKtSJt3R1-22" style="edgeStyle=orthogonalEdgeStyle;rounded=0;orthogonalLoop=1;jettySize=auto;html=1;exitX=1;exitY=0.5;exitDx=0;exitDy=0;entryX=1;entryY=0.5;entryDx=0;entryDy=0;" edge="1" parent="0FYDrWjgdQrZKtSJt3R1-1" source="0FYDrWjgdQrZKtSJt3R1-23" target="0FYDrWjgdQrZKtSJt3R1-24">
          <mxGeometry relative="1" as="geometry">
            <Array as="points">
              <mxPoint x="550" y="240" />
              <mxPoint x="550" y="420" />
            </Array>
          </mxGeometry>
        </mxCell>
        <mxCell id="0FYDrWjgdQrZKtSJt3R1-23" value="&lt;div align=&quot;left&quot;&gt;commonService CR: {&lt;br&gt;&lt;/div&gt;&lt;div align=&quot;left&quot;&gt;size: &lt;br&gt;&lt;/div&gt;&lt;div align=&quot;left&quot;&gt;&lt;font color=&quot;#cc0000&quot;&gt;sharedDBSvcs&lt;/font&gt;: &lt;br&gt;&lt;/div&gt;&lt;div align=&quot;left&quot;&gt;}&lt;br&gt;&lt;/div&gt;" style="rounded=1;whiteSpace=wrap;html=1;fillColor=#dae8fc;strokeColor=#6c8ebf;shadow=1;align=left;" vertex="1" parent="0FYDrWjgdQrZKtSJt3R1-1">
          <mxGeometry x="410" y="210" width="120" height="60" as="geometry" />
        </mxCell>
        <mxCell id="0FYDrWjgdQrZKtSJt3R1-24" value="&lt;div align=&quot;center&quot;&gt;&lt;br&gt;&lt;/div&gt;" style="rounded=1;whiteSpace=wrap;html=1;fillColor=#dae8fc;strokeColor=#6c8ebf;shadow=1;align=left;" vertex="1" parent="0FYDrWjgdQrZKtSJt3R1-1">
          <mxGeometry x="410" y="390" width="120" height="60" as="geometry" />
        </mxCell>
        <mxCell id="0FYDrWjgdQrZKtSJt3R1-25" value="OperandConfig" style="text;html=1;strokeColor=none;fillColor=none;align=center;verticalAlign=middle;whiteSpace=wrap;rounded=0;" vertex="1" parent="0FYDrWjgdQrZKtSJt3R1-1">
          <mxGeometry x="440" y="405" width="60" height="30" as="geometry" />
        </mxCell>
        <mxCell id="0FYDrWjgdQrZKtSJt3R1-26" value="&lt;div align=&quot;center&quot;&gt;&lt;br&gt;&lt;/div&gt;" style="rounded=1;whiteSpace=wrap;html=1;fillColor=#dae8fc;strokeColor=#6c8ebf;shadow=1;align=left;" vertex="1" parent="0FYDrWjgdQrZKtSJt3R1-1">
          <mxGeometry x="410" y="310" width="120" height="60" as="geometry" />
        </mxCell>
        <mxCell id="0FYDrWjgdQrZKtSJt3R1-27" value="OperandRegistry" style="text;html=1;strokeColor=none;fillColor=none;align=center;verticalAlign=middle;whiteSpace=wrap;rounded=0;" vertex="1" parent="0FYDrWjgdQrZKtSJt3R1-1">
          <mxGeometry x="440" y="325" width="60" height="30" as="geometry" />
        </mxCell>
        <mxCell id="0FYDrWjgdQrZKtSJt3R1-28" value="&lt;div align=&quot;center&quot;&gt;&lt;br&gt;&lt;/div&gt;" style="rounded=1;whiteSpace=wrap;html=1;fillColor=#dae8fc;strokeColor=#6c8ebf;shadow=1;align=left;" vertex="1" parent="0FYDrWjgdQrZKtSJt3R1-1">
          <mxGeometry x="410" y="470" width="120" height="60" as="geometry" />
        </mxCell>
        <mxCell id="0FYDrWjgdQrZKtSJt3R1-29" value="&lt;div&gt;Zen&lt;/div&gt;&lt;div&gt;OperandRequest&lt;/div&gt;" style="text;html=1;strokeColor=none;fillColor=none;align=center;verticalAlign=middle;whiteSpace=wrap;rounded=0;" vertex="1" parent="0FYDrWjgdQrZKtSJt3R1-1">
          <mxGeometry x="440" y="485" width="60" height="30" as="geometry" />
        </mxCell>
        <mxCell id="0FYDrWjgdQrZKtSJt3R1-30" style="edgeStyle=orthogonalEdgeStyle;rounded=0;orthogonalLoop=1;jettySize=auto;html=1;exitX=1;exitY=0.5;exitDx=0;exitDy=0;entryX=0;entryY=0.5;entryDx=0;entryDy=0;" edge="1" parent="0FYDrWjgdQrZKtSJt3R1-1" source="0FYDrWjgdQrZKtSJt3R1-35" target="0FYDrWjgdQrZKtSJt3R1-39">
          <mxGeometry relative="1" as="geometry" />
        </mxCell>
        <mxCell id="0FYDrWjgdQrZKtSJt3R1-31" style="edgeStyle=orthogonalEdgeStyle;rounded=0;orthogonalLoop=1;jettySize=auto;html=1;exitX=0.5;exitY=1;exitDx=0;exitDy=0;entryX=0;entryY=0.5;entryDx=0;entryDy=0;" edge="1" parent="0FYDrWjgdQrZKtSJt3R1-1" source="0FYDrWjgdQrZKtSJt3R1-35" target="0FYDrWjgdQrZKtSJt3R1-44">
          <mxGeometry relative="1" as="geometry" />
        </mxCell>
        <mxCell id="0FYDrWjgdQrZKtSJt3R1-32" style="edgeStyle=orthogonalEdgeStyle;rounded=0;orthogonalLoop=1;jettySize=auto;html=1;exitX=0.25;exitY=1;exitDx=0;exitDy=0;entryX=0;entryY=0.5;entryDx=0;entryDy=0;" edge="1" parent="0FYDrWjgdQrZKtSJt3R1-1" source="0FYDrWjgdQrZKtSJt3R1-35" target="0FYDrWjgdQrZKtSJt3R1-91">
          <mxGeometry relative="1" as="geometry">
            <Array as="points">
              <mxPoint x="240" y="663" />
              <mxPoint x="10" y="663" />
              <mxPoint x="10" y="775" />
            </Array>
          </mxGeometry>
        </mxCell>
        <mxCell id="0FYDrWjgdQrZKtSJt3R1-33" style="edgeStyle=orthogonalEdgeStyle;rounded=0;orthogonalLoop=1;jettySize=auto;html=1;exitX=0.25;exitY=1;exitDx=0;exitDy=0;entryX=0;entryY=0.75;entryDx=0;entryDy=0;" edge="1" parent="0FYDrWjgdQrZKtSJt3R1-1" source="0FYDrWjgdQrZKtSJt3R1-35" target="0FYDrWjgdQrZKtSJt3R1-92">
          <mxGeometry relative="1" as="geometry">
            <Array as="points">
              <mxPoint x="240" y="660" />
              <mxPoint x="10" y="660" />
              <mxPoint x="10" y="870" />
            </Array>
          </mxGeometry>
        </mxCell>
        <mxCell id="0FYDrWjgdQrZKtSJt3R1-35" value="Zen Operator" style="rounded=0;whiteSpace=wrap;html=1;fillColor=#e1d5e7;strokeColor=#9673a6;shadow=1;" vertex="1" parent="0FYDrWjgdQrZKtSJt3R1-1">
          <mxGeometry x="210" y="520" width="120" height="60" as="geometry" />
        </mxCell>
        <mxCell id="0FYDrWjgdQrZKtSJt3R1-36" style="edgeStyle=orthogonalEdgeStyle;rounded=0;orthogonalLoop=1;jettySize=auto;html=1;exitX=0;exitY=0.75;exitDx=0;exitDy=0;entryX=0.5;entryY=0;entryDx=0;entryDy=0;dashed=1;" edge="1" parent="0FYDrWjgdQrZKtSJt3R1-1" source="0FYDrWjgdQrZKtSJt3R1-39" target="0FYDrWjgdQrZKtSJt3R1-91">
          <mxGeometry relative="1" as="geometry">
            <Array as="points">
              <mxPoint x="330" y="595" />
              <mxPoint x="330" y="690" />
              <mxPoint x="80" y="690" />
            </Array>
          </mxGeometry>
        </mxCell>
        <mxCell id="0FYDrWjgdQrZKtSJt3R1-37" style="edgeStyle=orthogonalEdgeStyle;rounded=0;orthogonalLoop=1;jettySize=auto;html=1;exitX=0;exitY=0.75;exitDx=0;exitDy=0;entryX=1;entryY=0.25;entryDx=0;entryDy=0;dashed=1;" edge="1" parent="0FYDrWjgdQrZKtSJt3R1-1" source="0FYDrWjgdQrZKtSJt3R1-39" target="0FYDrWjgdQrZKtSJt3R1-92">
          <mxGeometry relative="1" as="geometry">
            <Array as="points">
              <mxPoint x="390" y="595" />
              <mxPoint x="390" y="840" />
            </Array>
          </mxGeometry>
        </mxCell>
        <mxCell id="0FYDrWjgdQrZKtSJt3R1-39" value="&lt;div align=&quot;center&quot;&gt;&lt;br&gt;&lt;/div&gt;" style="rounded=1;whiteSpace=wrap;html=1;fillColor=#dae8fc;strokeColor=#6c8ebf;shadow=1;align=left;" vertex="1" parent="0FYDrWjgdQrZKtSJt3R1-1">
          <mxGeometry x="410" y="550" width="120" height="60" as="geometry" />
        </mxCell>
        <mxCell id="0FYDrWjgdQrZKtSJt3R1-40" value="&lt;font style=&quot;font-size: 12px;&quot; color=&quot;#cc0000&quot;&gt;zen-metastore-edb-cm&lt;/font&gt;" style="text;html=1;strokeColor=none;fillColor=none;align=center;verticalAlign=middle;whiteSpace=wrap;rounded=0;" vertex="1" parent="0FYDrWjgdQrZKtSJt3R1-1">
          <mxGeometry x="440" y="560" width="60" height="30" as="geometry" />
        </mxCell>
        <mxCell id="0FYDrWjgdQrZKtSJt3R1-41" value="" style="ellipse;shape=cloud;whiteSpace=wrap;html=1;" vertex="1" parent="0FYDrWjgdQrZKtSJt3R1-1">
          <mxGeometry x="600" y="470" width="170" height="90" as="geometry" />
        </mxCell>
        <mxCell id="0FYDrWjgdQrZKtSJt3R1-42" value="" style="shape=flexArrow;endArrow=classic;html=1;rounded=0;" edge="1" parent="0FYDrWjgdQrZKtSJt3R1-1">
          <mxGeometry width="50" height="50" relative="1" as="geometry">
            <mxPoint x="550" y="580" as="sourcePoint" />
            <mxPoint x="600" y="530" as="targetPoint" />
          </mxGeometry>
        </mxCell>
        <mxCell id="0FYDrWjgdQrZKtSJt3R1-43" value="is_embedded_database: true" style="text;html=1;strokeColor=none;fillColor=none;align=center;verticalAlign=middle;whiteSpace=wrap;rounded=0;" vertex="1" parent="0FYDrWjgdQrZKtSJt3R1-1">
          <mxGeometry x="650" y="500" width="60" height="30" as="geometry" />
        </mxCell>
        <mxCell id="0FYDrWjgdQrZKtSJt3R1-44" value="&lt;div align=&quot;center&quot;&gt;&lt;br&gt;&lt;/div&gt;" style="rounded=1;whiteSpace=wrap;html=1;fillColor=#dae8fc;strokeColor=#6c8ebf;shadow=1;align=left;" vertex="1" parent="0FYDrWjgdQrZKtSJt3R1-1">
          <mxGeometry x="410" y="640" width="120" height="60" as="geometry" />
        </mxCell>
        <mxCell id="0FYDrWjgdQrZKtSJt3R1-45" value="&lt;font style=&quot;font-size: 12px;&quot; color=&quot;#cc0000&quot;&gt;Postgres OperandRequest&lt;/font&gt;" style="text;html=1;strokeColor=none;fillColor=none;align=center;verticalAlign=middle;whiteSpace=wrap;rounded=0;" vertex="1" parent="0FYDrWjgdQrZKtSJt3R1-1">
          <mxGeometry x="440" y="655" width="60" height="30" as="geometry" />
        </mxCell>
        <mxCell id="0FYDrWjgdQrZKtSJt3R1-46" style="edgeStyle=orthogonalEdgeStyle;rounded=0;orthogonalLoop=1;jettySize=auto;html=1;exitX=0.25;exitY=1;exitDx=0;exitDy=0;entryX=0.5;entryY=0;entryDx=0;entryDy=0;" edge="1" parent="0FYDrWjgdQrZKtSJt3R1-1" source="0FYDrWjgdQrZKtSJt3R1-47" target="0FYDrWjgdQrZKtSJt3R1-51">
          <mxGeometry relative="1" as="geometry" />
        </mxCell>
        <mxCell id="0FYDrWjgdQrZKtSJt3R1-47" value="Postgres Operator" style="rounded=0;whiteSpace=wrap;html=1;fillColor=#e1d5e7;strokeColor=#9673a6;shadow=1;" vertex="1" parent="0FYDrWjgdQrZKtSJt3R1-1">
          <mxGeometry x="210" y="750" width="120" height="60" as="geometry" />
        </mxCell>
        <mxCell id="0FYDrWjgdQrZKtSJt3R1-48" value="&lt;div align=&quot;center&quot;&gt;&lt;br&gt;&lt;/div&gt;" style="rounded=1;whiteSpace=wrap;html=1;fillColor=#dae8fc;strokeColor=#6c8ebf;shadow=1;align=left;" vertex="1" parent="0FYDrWjgdQrZKtSJt3R1-1">
          <mxGeometry x="410" y="750" width="120" height="60" as="geometry" />
        </mxCell>
        <mxCell id="0FYDrWjgdQrZKtSJt3R1-49" value="EDB Postgres Cluster" style="text;html=1;strokeColor=none;fillColor=none;align=center;verticalAlign=middle;whiteSpace=wrap;rounded=0;" vertex="1" parent="0FYDrWjgdQrZKtSJt3R1-1">
          <mxGeometry x="440" y="760" width="60" height="30" as="geometry" />
        </mxCell>
        <mxCell id="0FYDrWjgdQrZKtSJt3R1-50" style="edgeStyle=orthogonalEdgeStyle;rounded=0;orthogonalLoop=1;jettySize=auto;html=1;exitX=0.5;exitY=1;exitDx=0;exitDy=0;entryX=0.417;entryY=1;entryDx=0;entryDy=0;entryPerimeter=0;" edge="1" parent="0FYDrWjgdQrZKtSJt3R1-1" source="0FYDrWjgdQrZKtSJt3R1-47" target="0FYDrWjgdQrZKtSJt3R1-48">
          <mxGeometry relative="1" as="geometry" />
        </mxCell>
        <mxCell id="0FYDrWjgdQrZKtSJt3R1-51" value="&lt;font color=&quot;#cc0000&quot; style=&quot;font-size: 12px;&quot;&gt;cs-datastore-edb-1&lt;/font&gt;" style="rounded=0;whiteSpace=wrap;html=1;fillColor=#e1d5e7;strokeColor=#9673a6;shadow=1;" vertex="1" parent="0FYDrWjgdQrZKtSJt3R1-1">
          <mxGeometry x="220" y="960" width="120" height="60" as="geometry" />
        </mxCell>
        <mxCell id="0FYDrWjgdQrZKtSJt3R1-52" style="edgeStyle=orthogonalEdgeStyle;rounded=0;orthogonalLoop=1;jettySize=auto;html=1;exitX=0.5;exitY=1;exitDx=0;exitDy=0;entryX=1;entryY=0.75;entryDx=0;entryDy=0;dashed=1;" edge="1" parent="0FYDrWjgdQrZKtSJt3R1-1" source="0FYDrWjgdQrZKtSJt3R1-54" target="0FYDrWjgdQrZKtSJt3R1-92">
          <mxGeometry relative="1" as="geometry" />
        </mxCell>
        <mxCell id="0FYDrWjgdQrZKtSJt3R1-53" style="edgeStyle=orthogonalEdgeStyle;rounded=0;orthogonalLoop=1;jettySize=auto;html=1;exitX=0.5;exitY=1;exitDx=0;exitDy=0;entryX=0.5;entryY=1;entryDx=0;entryDy=0;dashed=1;" edge="1" parent="0FYDrWjgdQrZKtSJt3R1-1" source="0FYDrWjgdQrZKtSJt3R1-54" target="0FYDrWjgdQrZKtSJt3R1-91">
          <mxGeometry relative="1" as="geometry">
            <Array as="points">
              <mxPoint x="640" y="820" />
              <mxPoint x="80" y="820" />
            </Array>
          </mxGeometry>
        </mxCell>
        <mxCell id="0FYDrWjgdQrZKtSJt3R1-54" value="&lt;div align=&quot;center&quot;&gt;&lt;br&gt;&lt;/div&gt;" style="rounded=1;whiteSpace=wrap;html=1;fillColor=#dae8fc;strokeColor=#6c8ebf;shadow=1;align=left;" vertex="1" parent="0FYDrWjgdQrZKtSJt3R1-1">
          <mxGeometry x="580" y="640" width="120" height="60" as="geometry" />
        </mxCell>
        <mxCell id="0FYDrWjgdQrZKtSJt3R1-55" value="&lt;font style=&quot;font-size: 12px;&quot; color=&quot;#cc0000&quot;&gt;zen-metastore-edb-secret&lt;/font&gt;" style="text;html=1;strokeColor=none;fillColor=none;align=center;verticalAlign=middle;whiteSpace=wrap;rounded=0;" vertex="1" parent="0FYDrWjgdQrZKtSJt3R1-1">
          <mxGeometry x="600" y="655" width="70" height="30" as="geometry" />
        </mxCell>
        <mxCell id="0FYDrWjgdQrZKtSJt3R1-56" value="" style="ellipse;shape=cloud;whiteSpace=wrap;html=1;" vertex="1" parent="0FYDrWjgdQrZKtSJt3R1-1">
          <mxGeometry x="700" y="563" width="150" height="75" as="geometry" />
        </mxCell>
        <mxCell id="0FYDrWjgdQrZKtSJt3R1-57" value="&lt;div&gt;ca.crt:&lt;/div&gt;&lt;div&gt;tls.crt:&lt;/div&gt;&lt;div&gt;tls.key:&lt;br&gt;&lt;/div&gt;" style="text;html=1;strokeColor=none;fillColor=none;align=center;verticalAlign=middle;whiteSpace=wrap;rounded=0;" vertex="1" parent="0FYDrWjgdQrZKtSJt3R1-1">
          <mxGeometry x="750" y="585.5" width="60" height="30" as="geometry" />
        </mxCell>
        <mxCell id="0FYDrWjgdQrZKtSJt3R1-58" value="" style="shape=flexArrow;endArrow=classic;html=1;rounded=0;" edge="1" parent="0FYDrWjgdQrZKtSJt3R1-1">
          <mxGeometry width="50" height="50" relative="1" as="geometry">
            <mxPoint x="710" y="677.5" as="sourcePoint" />
            <mxPoint x="760" y="640" as="targetPoint" />
          </mxGeometry>
        </mxCell>
        <mxCell id="0FYDrWjgdQrZKtSJt3R1-59" value="" style="ellipse;shape=cloud;whiteSpace=wrap;html=1;" vertex="1" parent="0FYDrWjgdQrZKtSJt3R1-1">
          <mxGeometry x="610" y="250" width="170" height="90" as="geometry" />
        </mxCell>
        <mxCell id="0FYDrWjgdQrZKtSJt3R1-60" value="&lt;div&gt;&quot;IM,Zen&quot;,&lt;/div&gt;&lt;div&gt;&quot;IM&quot;,&lt;/div&gt;&lt;div&gt;&quot;Zen&quot;,&lt;/div&gt;&lt;div&gt;&quot;Keycloak&quot;&lt;br&gt;&lt;/div&gt;" style="text;html=1;strokeColor=none;fillColor=none;align=center;verticalAlign=middle;whiteSpace=wrap;rounded=0;" vertex="1" parent="0FYDrWjgdQrZKtSJt3R1-1">
          <mxGeometry x="660" y="280" width="60" height="30" as="geometry" />
        </mxCell>
        <mxCell id="0FYDrWjgdQrZKtSJt3R1-61" value="" style="shape=flexArrow;endArrow=classic;html=1;rounded=0;" edge="1" parent="0FYDrWjgdQrZKtSJt3R1-1" target="0FYDrWjgdQrZKtSJt3R1-59">
          <mxGeometry width="50" height="50" relative="1" as="geometry">
            <mxPoint x="560" y="250" as="sourcePoint" />
            <mxPoint x="610" y="200" as="targetPoint" />
          </mxGeometry>
        </mxCell>
        <mxCell id="0FYDrWjgdQrZKtSJt3R1-62" value="2.1" style="text;html=1;strokeColor=none;fillColor=none;align=center;verticalAlign=middle;whiteSpace=wrap;rounded=0;" vertex="1" parent="0FYDrWjgdQrZKtSJt3R1-1">
          <mxGeometry x="330" y="210" width="60" height="30" as="geometry" />
        </mxCell>
        <mxCell id="0FYDrWjgdQrZKtSJt3R1-63" value="2.2" style="text;html=1;strokeColor=none;fillColor=none;align=center;verticalAlign=middle;whiteSpace=wrap;rounded=0;" vertex="1" parent="0FYDrWjgdQrZKtSJt3R1-1">
          <mxGeometry x="260" y="270" width="60" height="30" as="geometry" />
        </mxCell>
        <mxCell id="0FYDrWjgdQrZKtSJt3R1-64" value="3" style="text;html=1;strokeColor=none;fillColor=none;align=center;verticalAlign=middle;whiteSpace=wrap;rounded=0;" vertex="1" parent="0FYDrWjgdQrZKtSJt3R1-1">
          <mxGeometry x="330" y="310" width="60" height="30" as="geometry" />
        </mxCell>
        <mxCell id="0FYDrWjgdQrZKtSJt3R1-65" value="4" style="text;html=1;strokeColor=none;fillColor=none;align=center;verticalAlign=middle;whiteSpace=wrap;rounded=0;" vertex="1" parent="0FYDrWjgdQrZKtSJt3R1-1">
          <mxGeometry x="350" y="90" width="60" height="30" as="geometry" />
        </mxCell>
        <mxCell id="0FYDrWjgdQrZKtSJt3R1-66" value="4.1" style="text;html=1;strokeColor=none;fillColor=none;align=center;verticalAlign=middle;whiteSpace=wrap;rounded=0;" vertex="1" parent="0FYDrWjgdQrZKtSJt3R1-1">
          <mxGeometry x="350" y="130" width="60" height="30" as="geometry" />
        </mxCell>
        <mxCell id="0FYDrWjgdQrZKtSJt3R1-67" value="5" style="text;html=1;strokeColor=none;fillColor=none;align=center;verticalAlign=middle;whiteSpace=wrap;rounded=0;" vertex="1" parent="0FYDrWjgdQrZKtSJt3R1-1">
          <mxGeometry x="260" y="470" width="60" height="30" as="geometry" />
        </mxCell>
        <mxCell id="0FYDrWjgdQrZKtSJt3R1-68" value="2.1.2" style="text;html=1;strokeColor=none;fillColor=none;align=center;verticalAlign=middle;whiteSpace=wrap;rounded=0;" vertex="1" parent="0FYDrWjgdQrZKtSJt3R1-1">
          <mxGeometry x="500" y="280" width="60" height="30" as="geometry" />
        </mxCell>
        <mxCell id="0FYDrWjgdQrZKtSJt3R1-69" value="6" style="text;html=1;strokeColor=none;fillColor=none;align=center;verticalAlign=middle;whiteSpace=wrap;rounded=0;" vertex="1" parent="0FYDrWjgdQrZKtSJt3R1-1">
          <mxGeometry x="200" y="470" width="60" height="30" as="geometry" />
        </mxCell>
        <mxCell id="0FYDrWjgdQrZKtSJt3R1-70" value="7" style="text;html=1;strokeColor=none;fillColor=none;align=center;verticalAlign=middle;whiteSpace=wrap;rounded=0;" vertex="1" parent="0FYDrWjgdQrZKtSJt3R1-1">
          <mxGeometry x="365" y="535" width="60" height="30" as="geometry" />
        </mxCell>
        <mxCell id="0FYDrWjgdQrZKtSJt3R1-71" value="8" style="text;html=1;strokeColor=none;fillColor=none;align=center;verticalAlign=middle;whiteSpace=wrap;rounded=0;" vertex="1" parent="0FYDrWjgdQrZKtSJt3R1-1">
          <mxGeometry x="260" y="640" width="60" height="30" as="geometry" />
        </mxCell>
        <mxCell id="0FYDrWjgdQrZKtSJt3R1-72" value="9" style="text;html=1;strokeColor=none;fillColor=none;align=center;verticalAlign=middle;whiteSpace=wrap;rounded=0;" vertex="1" parent="0FYDrWjgdQrZKtSJt3R1-1">
          <mxGeometry x="230" y="700" width="60" height="30" as="geometry" />
        </mxCell>
        <mxCell id="0FYDrWjgdQrZKtSJt3R1-73" value="10" style="text;html=1;strokeColor=none;fillColor=none;align=center;verticalAlign=middle;whiteSpace=wrap;rounded=0;" vertex="1" parent="0FYDrWjgdQrZKtSJt3R1-1">
          <mxGeometry x="170" y="440" width="60" height="30" as="geometry" />
        </mxCell>
        <mxCell id="0FYDrWjgdQrZKtSJt3R1-74" value="11" style="text;html=1;strokeColor=none;fillColor=none;align=center;verticalAlign=middle;whiteSpace=wrap;rounded=0;" vertex="1" parent="0FYDrWjgdQrZKtSJt3R1-1">
          <mxGeometry x="330" y="750" width="60" height="30" as="geometry" />
        </mxCell>
        <mxCell id="0FYDrWjgdQrZKtSJt3R1-75" value="14" style="text;html=1;strokeColor=none;fillColor=none;align=center;verticalAlign=middle;whiteSpace=wrap;rounded=0;" vertex="1" parent="0FYDrWjgdQrZKtSJt3R1-1">
          <mxGeometry x="350" y="608" width="60" height="30" as="geometry" />
        </mxCell>
        <mxCell id="0FYDrWjgdQrZKtSJt3R1-76" value="13" style="text;html=1;strokeColor=none;fillColor=none;align=center;verticalAlign=middle;whiteSpace=wrap;rounded=0;" vertex="1" parent="0FYDrWjgdQrZKtSJt3R1-1">
          <mxGeometry x="330" y="805" width="60" height="30" as="geometry" />
        </mxCell>
        <mxCell id="0FYDrWjgdQrZKtSJt3R1-77" style="edgeStyle=orthogonalEdgeStyle;rounded=0;orthogonalLoop=1;jettySize=auto;html=1;exitX=0.5;exitY=1;exitDx=0;exitDy=0;entryX=0;entryY=0.5;entryDx=0;entryDy=0;" edge="1" parent="0FYDrWjgdQrZKtSJt3R1-1" source="0FYDrWjgdQrZKtSJt3R1-79" target="0FYDrWjgdQrZKtSJt3R1-80">
          <mxGeometry relative="1" as="geometry">
            <Array as="points">
              <mxPoint x="80" y="380" />
              <mxPoint x="10" y="380" />
              <mxPoint x="10" y="610" />
            </Array>
          </mxGeometry>
        </mxCell>
        <mxCell id="0FYDrWjgdQrZKtSJt3R1-78" style="edgeStyle=orthogonalEdgeStyle;rounded=0;orthogonalLoop=1;jettySize=auto;html=1;exitX=0.5;exitY=1;exitDx=0;exitDy=0;entryX=0;entryY=0.5;entryDx=0;entryDy=0;" edge="1" parent="0FYDrWjgdQrZKtSJt3R1-1" source="0FYDrWjgdQrZKtSJt3R1-79" target="0FYDrWjgdQrZKtSJt3R1-84">
          <mxGeometry relative="1" as="geometry">
            <Array as="points">
              <mxPoint x="80" y="380" />
              <mxPoint x="10" y="380" />
              <mxPoint x="10" y="535" />
            </Array>
          </mxGeometry>
        </mxCell>
        <mxCell id="0FYDrWjgdQrZKtSJt3R1-79" value="Cert Manager" style="rounded=0;whiteSpace=wrap;html=1;fillColor=#e1d5e7;strokeColor=#9673a6;shadow=1;" vertex="1" parent="0FYDrWjgdQrZKtSJt3R1-1">
          <mxGeometry x="20" y="210" width="120" height="60" as="geometry" />
        </mxCell>
        <mxCell id="0FYDrWjgdQrZKtSJt3R1-80" value="&lt;div align=&quot;center&quot;&gt;&lt;br&gt;&lt;/div&gt;" style="rounded=1;whiteSpace=wrap;html=1;fillColor=#dae8fc;strokeColor=#6c8ebf;shadow=1;align=left;" vertex="1" parent="0FYDrWjgdQrZKtSJt3R1-1">
          <mxGeometry x="20" y="580" width="120" height="60" as="geometry" />
        </mxCell>
        <mxCell id="0FYDrWjgdQrZKtSJt3R1-81" value="edb-server-certificate" style="text;html=1;strokeColor=none;fillColor=none;align=center;verticalAlign=middle;whiteSpace=wrap;rounded=0;" vertex="1" parent="0FYDrWjgdQrZKtSJt3R1-1">
          <mxGeometry x="50" y="590" width="60" height="30" as="geometry" />
        </mxCell>
        <mxCell id="0FYDrWjgdQrZKtSJt3R1-82" value="&lt;div align=&quot;center&quot;&gt;&lt;br&gt;&lt;/div&gt;" style="rounded=1;whiteSpace=wrap;html=1;fillColor=#dae8fc;strokeColor=#6c8ebf;shadow=1;align=left;" vertex="1" parent="0FYDrWjgdQrZKtSJt3R1-1">
          <mxGeometry x="20" y="425" width="120" height="60" as="geometry" />
        </mxCell>
        <mxCell id="0FYDrWjgdQrZKtSJt3R1-83" value="cs-ca-certificate" style="text;html=1;strokeColor=none;fillColor=none;align=center;verticalAlign=middle;whiteSpace=wrap;rounded=0;" vertex="1" parent="0FYDrWjgdQrZKtSJt3R1-1">
          <mxGeometry x="40" y="440.5" width="60" height="30" as="geometry" />
        </mxCell>
        <mxCell id="0FYDrWjgdQrZKtSJt3R1-84" value="&lt;div align=&quot;center&quot;&gt;&lt;br&gt;&lt;/div&gt;" style="rounded=1;whiteSpace=wrap;html=1;fillColor=#dae8fc;strokeColor=#6c8ebf;shadow=1;align=left;" vertex="1" parent="0FYDrWjgdQrZKtSJt3R1-1">
          <mxGeometry x="20" y="505" width="120" height="60" as="geometry" />
        </mxCell>
        <mxCell id="0FYDrWjgdQrZKtSJt3R1-85" value="edb-replica-streaming-certificate" style="text;html=1;strokeColor=none;fillColor=none;align=center;verticalAlign=middle;whiteSpace=wrap;rounded=0;" vertex="1" parent="0FYDrWjgdQrZKtSJt3R1-1">
          <mxGeometry x="50" y="520" width="60" height="30" as="geometry" />
        </mxCell>
        <mxCell id="0FYDrWjgdQrZKtSJt3R1-86" style="edgeStyle=orthogonalEdgeStyle;rounded=0;orthogonalLoop=1;jettySize=auto;html=1;exitX=0.5;exitY=1;exitDx=0;exitDy=0;entryX=0.442;entryY=0.017;entryDx=0;entryDy=0;entryPerimeter=0;" edge="1" parent="0FYDrWjgdQrZKtSJt3R1-1" source="0FYDrWjgdQrZKtSJt3R1-82" target="0FYDrWjgdQrZKtSJt3R1-84">
          <mxGeometry relative="1" as="geometry" />
        </mxCell>
        <mxCell id="0FYDrWjgdQrZKtSJt3R1-87" style="edgeStyle=orthogonalEdgeStyle;rounded=0;orthogonalLoop=1;jettySize=auto;html=1;exitX=1;exitY=0.5;exitDx=0;exitDy=0;entryX=0.992;entryY=0.633;entryDx=0;entryDy=0;entryPerimeter=0;" edge="1" parent="0FYDrWjgdQrZKtSJt3R1-1" source="0FYDrWjgdQrZKtSJt3R1-82" target="0FYDrWjgdQrZKtSJt3R1-80">
          <mxGeometry relative="1" as="geometry" />
        </mxCell>
        <mxCell id="0FYDrWjgdQrZKtSJt3R1-88" value="12" style="text;html=1;strokeColor=none;fillColor=none;align=center;verticalAlign=middle;whiteSpace=wrap;rounded=0;" vertex="1" parent="0FYDrWjgdQrZKtSJt3R1-1">
          <mxGeometry x="120" y="390" width="60" height="30" as="geometry" />
        </mxCell>
        <mxCell id="0FYDrWjgdQrZKtSJt3R1-89" value="12.1" style="text;html=1;strokeColor=none;fillColor=none;align=center;verticalAlign=middle;whiteSpace=wrap;rounded=0;" vertex="1" parent="0FYDrWjgdQrZKtSJt3R1-1">
          <mxGeometry x="10" y="380" width="60" height="30" as="geometry" />
        </mxCell>
        <mxCell id="0FYDrWjgdQrZKtSJt3R1-90" style="edgeStyle=orthogonalEdgeStyle;rounded=0;orthogonalLoop=1;jettySize=auto;html=1;exitX=1;exitY=0.5;exitDx=0;exitDy=0;entryX=0;entryY=0.5;entryDx=0;entryDy=0;" edge="1" parent="0FYDrWjgdQrZKtSJt3R1-1" source="0FYDrWjgdQrZKtSJt3R1-91" target="0FYDrWjgdQrZKtSJt3R1-51">
          <mxGeometry relative="1" as="geometry" />
        </mxCell>
        <mxCell id="0FYDrWjgdQrZKtSJt3R1-91" value="zen-core-api" style="rounded=0;whiteSpace=wrap;html=1;fillColor=#e1d5e7;strokeColor=#9673a6;shadow=1;" vertex="1" parent="0FYDrWjgdQrZKtSJt3R1-1">
          <mxGeometry x="20" y="745" width="120" height="60" as="geometry" />
        </mxCell>
        <mxCell id="0FYDrWjgdQrZKtSJt3R1-92" value="user-mgmt" style="rounded=0;whiteSpace=wrap;html=1;fillColor=#e1d5e7;strokeColor=#9673a6;shadow=1;" vertex="1" parent="0FYDrWjgdQrZKtSJt3R1-1">
          <mxGeometry x="20" y="825" width="120" height="60" as="geometry" />
        </mxCell>
        <mxCell id="0FYDrWjgdQrZKtSJt3R1-96" value="8,1" style="text;html=1;strokeColor=none;fillColor=none;align=center;verticalAlign=middle;whiteSpace=wrap;rounded=0;" vertex="1" parent="0FYDrWjgdQrZKtSJt3R1-1">
          <mxGeometry x="190" y="620" width="60" height="30" as="geometry" />
        </mxCell>
        <mxCell id="0FYDrWjgdQrZKtSJt3R1-97" style="edgeStyle=orthogonalEdgeStyle;rounded=0;orthogonalLoop=1;jettySize=auto;html=1;exitX=1;exitY=0.5;exitDx=0;exitDy=0;entryX=0;entryY=0.5;entryDx=0;entryDy=0;" edge="1" parent="0FYDrWjgdQrZKtSJt3R1-1" source="0FYDrWjgdQrZKtSJt3R1-92" target="0FYDrWjgdQrZKtSJt3R1-51">
          <mxGeometry relative="1" as="geometry" />
        </mxCell>
        <mxCell id="0FYDrWjgdQrZKtSJt3R1-98" value="14" style="text;html=1;strokeColor=none;fillColor=none;align=center;verticalAlign=middle;whiteSpace=wrap;rounded=0;" vertex="1" parent="0FYDrWjgdQrZKtSJt3R1-1">
          <mxGeometry x="220" y="920" width="60" height="30" as="geometry" />
        </mxCell>
      </root>
    </mxGraphModel>
  </diagram>
  <diagram name="im-external-postgres" id="sb7IGGLTbRPwFfVmHYor">
    <mxGraphModel dx="1599" dy="944" grid="0" gridSize="10" guides="1" tooltips="1" connect="1" arrows="1" fold="1" page="1" pageScale="1" pageWidth="850" pageHeight="1100" math="0" shadow="0">
      <root>
        <mxCell id="MTRYjb5GqHhyapEWr1S5-0" />
        <mxCell id="MTRYjb5GqHhyapEWr1S5-1" parent="MTRYjb5GqHhyapEWr1S5-0" />
        <mxCell id="MTRYjb5GqHhyapEWr1S5-2" style="edgeStyle=orthogonalEdgeStyle;rounded=0;orthogonalLoop=1;jettySize=auto;html=1;exitX=0.5;exitY=1;exitDx=0;exitDy=0;entryX=0.5;entryY=0;entryDx=0;entryDy=0;" edge="1" parent="MTRYjb5GqHhyapEWr1S5-1" source="MTRYjb5GqHhyapEWr1S5-5" target="MTRYjb5GqHhyapEWr1S5-8">
          <mxGeometry relative="1" as="geometry" />
        </mxCell>
        <mxCell id="MTRYjb5GqHhyapEWr1S5-3" style="edgeStyle=orthogonalEdgeStyle;rounded=0;orthogonalLoop=1;jettySize=auto;html=1;exitX=1;exitY=0.5;exitDx=0;exitDy=0;entryX=0.5;entryY=0;entryDx=0;entryDy=0;" edge="1" parent="MTRYjb5GqHhyapEWr1S5-1" source="MTRYjb5GqHhyapEWr1S5-5" target="MTRYjb5GqHhyapEWr1S5-23">
          <mxGeometry relative="1" as="geometry" />
        </mxCell>
        <mxCell id="MTRYjb5GqHhyapEWr1S5-4" style="edgeStyle=orthogonalEdgeStyle;rounded=0;orthogonalLoop=1;jettySize=auto;html=1;exitX=1;exitY=0.25;exitDx=0;exitDy=0;entryX=1;entryY=0.5;entryDx=0;entryDy=0;" edge="1" parent="MTRYjb5GqHhyapEWr1S5-1" source="MTRYjb5GqHhyapEWr1S5-5" target="MTRYjb5GqHhyapEWr1S5-28">
          <mxGeometry relative="1" as="geometry">
            <Array as="points">
              <mxPoint x="580" y="115" />
              <mxPoint x="580" y="500" />
            </Array>
          </mxGeometry>
        </mxCell>
        <mxCell id="MTRYjb5GqHhyapEWr1S5-5" value="Cloud Pak Operator " style="rounded=0;whiteSpace=wrap;html=1;fillColor=#e1d5e7;strokeColor=#9673a6;shadow=1;" vertex="1" parent="MTRYjb5GqHhyapEWr1S5-1">
          <mxGeometry x="210" y="100" width="120" height="60" as="geometry" />
        </mxCell>
        <mxCell id="MTRYjb5GqHhyapEWr1S5-6" style="edgeStyle=orthogonalEdgeStyle;rounded=0;orthogonalLoop=1;jettySize=auto;html=1;exitX=0.5;exitY=1;exitDx=0;exitDy=0;entryX=0.5;entryY=0;entryDx=0;entryDy=0;" edge="1" parent="MTRYjb5GqHhyapEWr1S5-1" source="MTRYjb5GqHhyapEWr1S5-8" target="MTRYjb5GqHhyapEWr1S5-21">
          <mxGeometry relative="1" as="geometry" />
        </mxCell>
        <mxCell id="MTRYjb5GqHhyapEWr1S5-7" style="edgeStyle=orthogonalEdgeStyle;rounded=0;orthogonalLoop=1;jettySize=auto;html=1;exitX=1;exitY=0.5;exitDx=0;exitDy=0;entryX=0;entryY=0.5;entryDx=0;entryDy=0;" edge="1" parent="MTRYjb5GqHhyapEWr1S5-1" source="MTRYjb5GqHhyapEWr1S5-8" target="MTRYjb5GqHhyapEWr1S5-23">
          <mxGeometry relative="1" as="geometry" />
        </mxCell>
        <mxCell id="MTRYjb5GqHhyapEWr1S5-8" value="Common Service Operator" style="rounded=0;whiteSpace=wrap;html=1;fillColor=#e1d5e7;strokeColor=#9673a6;shadow=1;" vertex="1" parent="MTRYjb5GqHhyapEWr1S5-1">
          <mxGeometry x="210" y="210" width="120" height="60" as="geometry" />
        </mxCell>
        <mxCell id="MTRYjb5GqHhyapEWr1S5-9" value="1" style="text;html=1;strokeColor=none;fillColor=none;align=center;verticalAlign=middle;whiteSpace=wrap;rounded=0;" vertex="1" parent="MTRYjb5GqHhyapEWr1S5-1">
          <mxGeometry x="210" y="170" width="60" height="30" as="geometry" />
        </mxCell>
        <mxCell id="MTRYjb5GqHhyapEWr1S5-10" style="edgeStyle=orthogonalEdgeStyle;rounded=0;orthogonalLoop=1;jettySize=auto;html=1;exitX=1;exitY=0.5;exitDx=0;exitDy=0;" edge="1" parent="MTRYjb5GqHhyapEWr1S5-1" source="MTRYjb5GqHhyapEWr1S5-21" target="MTRYjb5GqHhyapEWr1S5-26">
          <mxGeometry relative="1" as="geometry" />
        </mxCell>
        <mxCell id="MTRYjb5GqHhyapEWr1S5-11" style="edgeStyle=orthogonalEdgeStyle;rounded=0;orthogonalLoop=1;jettySize=auto;html=1;exitX=1;exitY=0.5;exitDx=0;exitDy=0;entryX=0;entryY=0.5;entryDx=0;entryDy=0;" edge="1" parent="MTRYjb5GqHhyapEWr1S5-1" source="MTRYjb5GqHhyapEWr1S5-21" target="MTRYjb5GqHhyapEWr1S5-24">
          <mxGeometry relative="1" as="geometry">
            <Array as="points">
              <mxPoint x="370" y="340" />
              <mxPoint x="370" y="420" />
            </Array>
          </mxGeometry>
        </mxCell>
        <mxCell id="MTRYjb5GqHhyapEWr1S5-12" style="edgeStyle=orthogonalEdgeStyle;rounded=0;orthogonalLoop=1;jettySize=auto;html=1;exitX=0.5;exitY=1;exitDx=0;exitDy=0;entryX=0;entryY=0.5;entryDx=0;entryDy=0;" edge="1" parent="MTRYjb5GqHhyapEWr1S5-1" source="MTRYjb5GqHhyapEWr1S5-21" target="MTRYjb5GqHhyapEWr1S5-28">
          <mxGeometry relative="1" as="geometry" />
        </mxCell>
        <mxCell id="MTRYjb5GqHhyapEWr1S5-14" style="edgeStyle=orthogonalEdgeStyle;rounded=0;orthogonalLoop=1;jettySize=auto;html=1;exitX=0.25;exitY=1;exitDx=0;exitDy=0;entryX=0.25;entryY=0;entryDx=0;entryDy=0;" edge="1" parent="MTRYjb5GqHhyapEWr1S5-1" source="MTRYjb5GqHhyapEWr1S5-21" target="MTRYjb5GqHhyapEWr1S5-32">
          <mxGeometry relative="1" as="geometry" />
        </mxCell>
        <mxCell id="MTRYjb5GqHhyapEWr1S5-21" value="ODLM" style="rounded=0;whiteSpace=wrap;html=1;fillColor=#e1d5e7;strokeColor=#9673a6;shadow=1;" vertex="1" parent="MTRYjb5GqHhyapEWr1S5-1">
          <mxGeometry x="210" y="310" width="120" height="60" as="geometry" />
        </mxCell>
        <mxCell id="MTRYjb5GqHhyapEWr1S5-22" style="edgeStyle=orthogonalEdgeStyle;rounded=0;orthogonalLoop=1;jettySize=auto;html=1;exitX=1;exitY=0.5;exitDx=0;exitDy=0;entryX=1;entryY=0.5;entryDx=0;entryDy=0;" edge="1" parent="MTRYjb5GqHhyapEWr1S5-1" source="MTRYjb5GqHhyapEWr1S5-23" target="MTRYjb5GqHhyapEWr1S5-24">
          <mxGeometry relative="1" as="geometry">
            <Array as="points">
              <mxPoint x="550" y="240" />
              <mxPoint x="550" y="420" />
            </Array>
          </mxGeometry>
        </mxCell>
        <mxCell id="MTRYjb5GqHhyapEWr1S5-23" value="&lt;div align=&quot;left&quot;&gt;commonService CR: {&lt;br&gt;&lt;/div&gt;&lt;div align=&quot;left&quot;&gt;size: &lt;br&gt;&lt;/div&gt;&lt;div align=&quot;left&quot;&gt;&lt;font color=&quot;#cc0000&quot;&gt;sharedDBSvcs&lt;/font&gt;: &lt;br&gt;&lt;/div&gt;&lt;div align=&quot;left&quot;&gt;}&lt;br&gt;&lt;/div&gt;" style="rounded=1;whiteSpace=wrap;html=1;fillColor=#dae8fc;strokeColor=#6c8ebf;shadow=1;align=left;" vertex="1" parent="MTRYjb5GqHhyapEWr1S5-1">
          <mxGeometry x="410" y="210" width="120" height="60" as="geometry" />
        </mxCell>
        <mxCell id="MTRYjb5GqHhyapEWr1S5-24" value="&lt;div align=&quot;center&quot;&gt;&lt;br&gt;&lt;/div&gt;" style="rounded=1;whiteSpace=wrap;html=1;fillColor=#dae8fc;strokeColor=#6c8ebf;shadow=1;align=left;" vertex="1" parent="MTRYjb5GqHhyapEWr1S5-1">
          <mxGeometry x="410" y="390" width="120" height="60" as="geometry" />
        </mxCell>
        <mxCell id="MTRYjb5GqHhyapEWr1S5-25" value="OperandConfig" style="text;html=1;strokeColor=none;fillColor=none;align=center;verticalAlign=middle;whiteSpace=wrap;rounded=0;" vertex="1" parent="MTRYjb5GqHhyapEWr1S5-1">
          <mxGeometry x="440" y="405" width="60" height="30" as="geometry" />
        </mxCell>
        <mxCell id="MTRYjb5GqHhyapEWr1S5-26" value="&lt;div align=&quot;center&quot;&gt;&lt;br&gt;&lt;/div&gt;" style="rounded=1;whiteSpace=wrap;html=1;fillColor=#dae8fc;strokeColor=#6c8ebf;shadow=1;align=left;" vertex="1" parent="MTRYjb5GqHhyapEWr1S5-1">
          <mxGeometry x="410" y="310" width="120" height="60" as="geometry" />
        </mxCell>
        <mxCell id="MTRYjb5GqHhyapEWr1S5-27" value="OperandRegistry" style="text;html=1;strokeColor=none;fillColor=none;align=center;verticalAlign=middle;whiteSpace=wrap;rounded=0;" vertex="1" parent="MTRYjb5GqHhyapEWr1S5-1">
          <mxGeometry x="440" y="325" width="60" height="30" as="geometry" />
        </mxCell>
        <mxCell id="MTRYjb5GqHhyapEWr1S5-28" value="&lt;div align=&quot;center&quot;&gt;&lt;br&gt;&lt;/div&gt;" style="rounded=1;whiteSpace=wrap;html=1;fillColor=#dae8fc;strokeColor=#6c8ebf;shadow=1;align=left;" vertex="1" parent="MTRYjb5GqHhyapEWr1S5-1">
          <mxGeometry x="410" y="470" width="120" height="60" as="geometry" />
        </mxCell>
        <mxCell id="MTRYjb5GqHhyapEWr1S5-29" value="IM OperandRequest" style="text;html=1;strokeColor=none;fillColor=none;align=center;verticalAlign=middle;whiteSpace=wrap;rounded=0;" vertex="1" parent="MTRYjb5GqHhyapEWr1S5-1">
          <mxGeometry x="440" y="485" width="60" height="30" as="geometry" />
        </mxCell>
        <mxCell id="MTRYjb5GqHhyapEWr1S5-30" style="edgeStyle=orthogonalEdgeStyle;rounded=0;orthogonalLoop=1;jettySize=auto;html=1;exitX=1;exitY=0.5;exitDx=0;exitDy=0;entryX=0;entryY=0.5;entryDx=0;entryDy=0;" edge="1" parent="MTRYjb5GqHhyapEWr1S5-1" source="MTRYjb5GqHhyapEWr1S5-32" target="MTRYjb5GqHhyapEWr1S5-33">
          <mxGeometry relative="1" as="geometry" />
        </mxCell>
        <mxCell id="ydi3MLBrZtDl7dsS37vL-3" style="edgeStyle=orthogonalEdgeStyle;rounded=0;orthogonalLoop=1;jettySize=auto;html=1;exitX=0.5;exitY=1;exitDx=0;exitDy=0;entryX=0.5;entryY=0;entryDx=0;entryDy=0;" edge="1" parent="MTRYjb5GqHhyapEWr1S5-1" source="MTRYjb5GqHhyapEWr1S5-32" target="ydi3MLBrZtDl7dsS37vL-0">
          <mxGeometry relative="1" as="geometry" />
        </mxCell>
        <mxCell id="ydi3MLBrZtDl7dsS37vL-5" style="edgeStyle=orthogonalEdgeStyle;rounded=0;orthogonalLoop=1;jettySize=auto;html=1;exitX=0.5;exitY=1;exitDx=0;exitDy=0;entryX=0;entryY=0.5;entryDx=0;entryDy=0;" edge="1" parent="MTRYjb5GqHhyapEWr1S5-1" source="MTRYjb5GqHhyapEWr1S5-32" target="ydi3MLBrZtDl7dsS37vL-2">
          <mxGeometry relative="1" as="geometry">
            <Array as="points">
              <mxPoint x="270" y="620" />
              <mxPoint x="190" y="620" />
              <mxPoint x="190" y="835" />
            </Array>
          </mxGeometry>
        </mxCell>
        <mxCell id="MTRYjb5GqHhyapEWr1S5-32" value="IM Operator" style="rounded=0;whiteSpace=wrap;html=1;fillColor=#e1d5e7;strokeColor=#9673a6;shadow=1;" vertex="1" parent="MTRYjb5GqHhyapEWr1S5-1">
          <mxGeometry x="210" y="520" width="120" height="60" as="geometry" />
        </mxCell>
        <mxCell id="ydi3MLBrZtDl7dsS37vL-11" style="edgeStyle=orthogonalEdgeStyle;rounded=0;orthogonalLoop=1;jettySize=auto;html=1;exitX=0.5;exitY=1;exitDx=0;exitDy=0;entryX=1;entryY=0.5;entryDx=0;entryDy=0;dashed=1;" edge="1" parent="MTRYjb5GqHhyapEWr1S5-1" source="MTRYjb5GqHhyapEWr1S5-33" target="ydi3MLBrZtDl7dsS37vL-0">
          <mxGeometry relative="1" as="geometry" />
        </mxCell>
        <mxCell id="ydi3MLBrZtDl7dsS37vL-12" style="edgeStyle=orthogonalEdgeStyle;rounded=0;orthogonalLoop=1;jettySize=auto;html=1;exitX=0.5;exitY=1;exitDx=0;exitDy=0;entryX=1;entryY=0.75;entryDx=0;entryDy=0;dashed=1;" edge="1" parent="MTRYjb5GqHhyapEWr1S5-1" source="MTRYjb5GqHhyapEWr1S5-33" target="ydi3MLBrZtDl7dsS37vL-1">
          <mxGeometry relative="1" as="geometry" />
        </mxCell>
        <mxCell id="ydi3MLBrZtDl7dsS37vL-13" style="edgeStyle=orthogonalEdgeStyle;rounded=0;orthogonalLoop=1;jettySize=auto;html=1;exitX=0.5;exitY=1;exitDx=0;exitDy=0;entryX=1;entryY=0.75;entryDx=0;entryDy=0;dashed=1;" edge="1" parent="MTRYjb5GqHhyapEWr1S5-1" source="MTRYjb5GqHhyapEWr1S5-33" target="ydi3MLBrZtDl7dsS37vL-2">
          <mxGeometry relative="1" as="geometry" />
        </mxCell>
        <mxCell id="ydi3MLBrZtDl7dsS37vL-16" style="edgeStyle=orthogonalEdgeStyle;rounded=0;orthogonalLoop=1;jettySize=auto;html=1;exitX=0.5;exitY=1;exitDx=0;exitDy=0;entryX=1;entryY=0.25;entryDx=0;entryDy=0;dashed=1;" edge="1" parent="MTRYjb5GqHhyapEWr1S5-1" source="MTRYjb5GqHhyapEWr1S5-33" target="ydi3MLBrZtDl7dsS37vL-1">
          <mxGeometry relative="1" as="geometry" />
        </mxCell>
        <mxCell id="MTRYjb5GqHhyapEWr1S5-33" value="&lt;div align=&quot;center&quot;&gt;&lt;br&gt;&lt;/div&gt;" style="rounded=1;whiteSpace=wrap;html=1;fillColor=#dae8fc;strokeColor=#6c8ebf;shadow=1;align=left;" vertex="1" parent="MTRYjb5GqHhyapEWr1S5-1">
          <mxGeometry x="410" y="550" width="120" height="60" as="geometry" />
        </mxCell>
        <mxCell id="MTRYjb5GqHhyapEWr1S5-34" value="&lt;font style=&quot;font-size: 12px;&quot; color=&quot;#cc0000&quot;&gt;im-datastore-edb-cm&lt;/font&gt;" style="text;html=1;strokeColor=none;fillColor=none;align=center;verticalAlign=middle;whiteSpace=wrap;rounded=0;" vertex="1" parent="MTRYjb5GqHhyapEWr1S5-1">
          <mxGeometry x="440" y="560" width="60" height="30" as="geometry" />
        </mxCell>
        <mxCell id="MTRYjb5GqHhyapEWr1S5-35" value="" style="ellipse;shape=cloud;whiteSpace=wrap;html=1;" vertex="1" parent="MTRYjb5GqHhyapEWr1S5-1">
          <mxGeometry x="600" y="390" width="190" height="170" as="geometry" />
        </mxCell>
        <mxCell id="MTRYjb5GqHhyapEWr1S5-36" value="" style="shape=flexArrow;endArrow=classic;html=1;rounded=0;" edge="1" parent="MTRYjb5GqHhyapEWr1S5-1">
          <mxGeometry width="50" height="50" relative="1" as="geometry">
            <mxPoint x="550" y="580" as="sourcePoint" />
            <mxPoint x="600" y="530" as="targetPoint" />
          </mxGeometry>
        </mxCell>
        <mxCell id="MTRYjb5GqHhyapEWr1S5-37" value="&lt;div&gt;is_embedded_database: false&lt;/div&gt;&lt;div&gt;database_ca-cert:&lt;/div&gt;&lt;div&gt;database_client_cert:&lt;/div&gt;&lt;div&gt;database_name:&lt;/div&gt;&lt;div&gt;database_port:&lt;/div&gt;&lt;div&gt;database_user:&lt;br&gt;&lt;/div&gt;&lt;div&gt;&lt;br&gt;&lt;/div&gt;" style="text;html=1;strokeColor=none;fillColor=none;align=center;verticalAlign=middle;whiteSpace=wrap;rounded=0;" vertex="1" parent="MTRYjb5GqHhyapEWr1S5-1">
          <mxGeometry x="670" y="480" width="60" height="30" as="geometry" />
        </mxCell>
        <mxCell id="ydi3MLBrZtDl7dsS37vL-14" style="edgeStyle=orthogonalEdgeStyle;rounded=0;orthogonalLoop=1;jettySize=auto;html=1;exitX=0;exitY=0.5;exitDx=0;exitDy=0;dashed=1;entryX=1;entryY=0.75;entryDx=0;entryDy=0;" edge="1" parent="MTRYjb5GqHhyapEWr1S5-1" source="MTRYjb5GqHhyapEWr1S5-46" target="ydi3MLBrZtDl7dsS37vL-0">
          <mxGeometry relative="1" as="geometry">
            <mxPoint x="470" y="670" as="targetPoint" />
          </mxGeometry>
        </mxCell>
        <mxCell id="ydi3MLBrZtDl7dsS37vL-15" style="edgeStyle=orthogonalEdgeStyle;rounded=0;orthogonalLoop=1;jettySize=auto;html=1;exitX=0;exitY=0.5;exitDx=0;exitDy=0;entryX=1;entryY=0.75;entryDx=0;entryDy=0;dashed=1;" edge="1" parent="MTRYjb5GqHhyapEWr1S5-1" source="MTRYjb5GqHhyapEWr1S5-46" target="ydi3MLBrZtDl7dsS37vL-1">
          <mxGeometry relative="1" as="geometry">
            <Array as="points">
              <mxPoint x="550" y="670" />
              <mxPoint x="550" y="765" />
            </Array>
          </mxGeometry>
        </mxCell>
        <mxCell id="ydi3MLBrZtDl7dsS37vL-17" style="edgeStyle=orthogonalEdgeStyle;rounded=0;orthogonalLoop=1;jettySize=auto;html=1;exitX=0;exitY=0.5;exitDx=0;exitDy=0;entryX=1;entryY=0.25;entryDx=0;entryDy=0;dashed=1;" edge="1" parent="MTRYjb5GqHhyapEWr1S5-1" source="MTRYjb5GqHhyapEWr1S5-46" target="ydi3MLBrZtDl7dsS37vL-2">
          <mxGeometry relative="1" as="geometry" />
        </mxCell>
        <mxCell id="MTRYjb5GqHhyapEWr1S5-46" value="&lt;div align=&quot;center&quot;&gt;&lt;br&gt;&lt;/div&gt;" style="rounded=1;whiteSpace=wrap;html=1;fillColor=#dae8fc;strokeColor=#6c8ebf;shadow=1;align=left;" vertex="1" parent="MTRYjb5GqHhyapEWr1S5-1">
          <mxGeometry x="580" y="640" width="120" height="60" as="geometry" />
        </mxCell>
        <mxCell id="MTRYjb5GqHhyapEWr1S5-47" value="&lt;font style=&quot;font-size: 12px;&quot; color=&quot;#cc0000&quot;&gt;im-datastore-edb-secret&lt;/font&gt;" style="text;html=1;strokeColor=none;fillColor=none;align=center;verticalAlign=middle;whiteSpace=wrap;rounded=0;" vertex="1" parent="MTRYjb5GqHhyapEWr1S5-1">
          <mxGeometry x="600" y="655" width="70" height="30" as="geometry" />
        </mxCell>
        <mxCell id="MTRYjb5GqHhyapEWr1S5-48" value="" style="ellipse;shape=cloud;whiteSpace=wrap;html=1;" vertex="1" parent="MTRYjb5GqHhyapEWr1S5-1">
          <mxGeometry x="700" y="563" width="150" height="75" as="geometry" />
        </mxCell>
        <mxCell id="MTRYjb5GqHhyapEWr1S5-49" value="&lt;div&gt;dbusername:&lt;/div&gt;&lt;div&gt;dbuserpassword:&lt;br&gt;&lt;/div&gt;" style="text;html=1;strokeColor=none;fillColor=none;align=center;verticalAlign=middle;whiteSpace=wrap;rounded=0;" vertex="1" parent="MTRYjb5GqHhyapEWr1S5-1">
          <mxGeometry x="750" y="585.5" width="60" height="30" as="geometry" />
        </mxCell>
        <mxCell id="MTRYjb5GqHhyapEWr1S5-50" value="" style="shape=flexArrow;endArrow=classic;html=1;rounded=0;" edge="1" parent="MTRYjb5GqHhyapEWr1S5-1">
          <mxGeometry width="50" height="50" relative="1" as="geometry">
            <mxPoint x="710" y="677.5" as="sourcePoint" />
            <mxPoint x="760" y="640" as="targetPoint" />
          </mxGeometry>
        </mxCell>
        <mxCell id="MTRYjb5GqHhyapEWr1S5-51" value="" style="ellipse;shape=cloud;whiteSpace=wrap;html=1;" vertex="1" parent="MTRYjb5GqHhyapEWr1S5-1">
          <mxGeometry x="610" y="250" width="170" height="90" as="geometry" />
        </mxCell>
        <mxCell id="MTRYjb5GqHhyapEWr1S5-52" value="&lt;div&gt;&quot;IM,Zen&quot;,&lt;/div&gt;&lt;div&gt;&quot;IM&quot;,&lt;/div&gt;&lt;div&gt;&quot;Zen&quot;,&lt;/div&gt;&lt;div&gt;&quot;Keycloak&quot;&lt;br&gt;&lt;/div&gt;" style="text;html=1;strokeColor=none;fillColor=none;align=center;verticalAlign=middle;whiteSpace=wrap;rounded=0;" vertex="1" parent="MTRYjb5GqHhyapEWr1S5-1">
          <mxGeometry x="660" y="280" width="60" height="30" as="geometry" />
        </mxCell>
        <mxCell id="MTRYjb5GqHhyapEWr1S5-53" value="" style="shape=flexArrow;endArrow=classic;html=1;rounded=0;" edge="1" parent="MTRYjb5GqHhyapEWr1S5-1" target="MTRYjb5GqHhyapEWr1S5-51">
          <mxGeometry width="50" height="50" relative="1" as="geometry">
            <mxPoint x="560" y="250" as="sourcePoint" />
            <mxPoint x="610" y="200" as="targetPoint" />
          </mxGeometry>
        </mxCell>
        <mxCell id="MTRYjb5GqHhyapEWr1S5-54" value="2.1" style="text;html=1;strokeColor=none;fillColor=none;align=center;verticalAlign=middle;whiteSpace=wrap;rounded=0;" vertex="1" parent="MTRYjb5GqHhyapEWr1S5-1">
          <mxGeometry x="330" y="210" width="60" height="30" as="geometry" />
        </mxCell>
        <mxCell id="MTRYjb5GqHhyapEWr1S5-55" value="2.2" style="text;html=1;strokeColor=none;fillColor=none;align=center;verticalAlign=middle;whiteSpace=wrap;rounded=0;" vertex="1" parent="MTRYjb5GqHhyapEWr1S5-1">
          <mxGeometry x="260" y="270" width="60" height="30" as="geometry" />
        </mxCell>
        <mxCell id="MTRYjb5GqHhyapEWr1S5-56" value="3" style="text;html=1;strokeColor=none;fillColor=none;align=center;verticalAlign=middle;whiteSpace=wrap;rounded=0;" vertex="1" parent="MTRYjb5GqHhyapEWr1S5-1">
          <mxGeometry x="330" y="310" width="60" height="30" as="geometry" />
        </mxCell>
        <mxCell id="MTRYjb5GqHhyapEWr1S5-57" value="4" style="text;html=1;strokeColor=none;fillColor=none;align=center;verticalAlign=middle;whiteSpace=wrap;rounded=0;" vertex="1" parent="MTRYjb5GqHhyapEWr1S5-1">
          <mxGeometry x="350" y="90" width="60" height="30" as="geometry" />
        </mxCell>
        <mxCell id="MTRYjb5GqHhyapEWr1S5-58" value="4.1" style="text;html=1;strokeColor=none;fillColor=none;align=center;verticalAlign=middle;whiteSpace=wrap;rounded=0;" vertex="1" parent="MTRYjb5GqHhyapEWr1S5-1">
          <mxGeometry x="350" y="130" width="60" height="30" as="geometry" />
        </mxCell>
        <mxCell id="MTRYjb5GqHhyapEWr1S5-59" value="5" style="text;html=1;strokeColor=none;fillColor=none;align=center;verticalAlign=middle;whiteSpace=wrap;rounded=0;" vertex="1" parent="MTRYjb5GqHhyapEWr1S5-1">
          <mxGeometry x="260" y="470" width="60" height="30" as="geometry" />
        </mxCell>
        <mxCell id="MTRYjb5GqHhyapEWr1S5-60" value="2.1.2" style="text;html=1;strokeColor=none;fillColor=none;align=center;verticalAlign=middle;whiteSpace=wrap;rounded=0;" vertex="1" parent="MTRYjb5GqHhyapEWr1S5-1">
          <mxGeometry x="500" y="280" width="60" height="30" as="geometry" />
        </mxCell>
        <mxCell id="MTRYjb5GqHhyapEWr1S5-61" value="6" style="text;html=1;strokeColor=none;fillColor=none;align=center;verticalAlign=middle;whiteSpace=wrap;rounded=0;" vertex="1" parent="MTRYjb5GqHhyapEWr1S5-1">
          <mxGeometry x="200" y="470" width="60" height="30" as="geometry" />
        </mxCell>
        <mxCell id="MTRYjb5GqHhyapEWr1S5-62" value="7" style="text;html=1;strokeColor=none;fillColor=none;align=center;verticalAlign=middle;whiteSpace=wrap;rounded=0;" vertex="1" parent="MTRYjb5GqHhyapEWr1S5-1">
          <mxGeometry x="365" y="535" width="60" height="30" as="geometry" />
        </mxCell>
        <mxCell id="MTRYjb5GqHhyapEWr1S5-71" value="Cert Manager" style="rounded=0;whiteSpace=wrap;html=1;fillColor=#e1d5e7;strokeColor=#9673a6;shadow=1;" vertex="1" parent="MTRYjb5GqHhyapEWr1S5-1">
          <mxGeometry x="20" y="210" width="120" height="60" as="geometry" />
        </mxCell>
        <mxCell id="MTRYjb5GqHhyapEWr1S5-74" value="&lt;div align=&quot;center&quot;&gt;&lt;br&gt;&lt;/div&gt;" style="rounded=1;whiteSpace=wrap;html=1;fillColor=#dae8fc;strokeColor=#6c8ebf;shadow=1;align=left;" vertex="1" parent="MTRYjb5GqHhyapEWr1S5-1">
          <mxGeometry x="20" y="425" width="120" height="60" as="geometry" />
        </mxCell>
        <mxCell id="MTRYjb5GqHhyapEWr1S5-75" value="cs-ca-certificate" style="text;html=1;strokeColor=none;fillColor=none;align=center;verticalAlign=middle;whiteSpace=wrap;rounded=0;" vertex="1" parent="MTRYjb5GqHhyapEWr1S5-1">
          <mxGeometry x="40" y="440.5" width="60" height="30" as="geometry" />
        </mxCell>
        <mxCell id="ydi3MLBrZtDl7dsS37vL-0" value="platform auth service " style="rounded=0;whiteSpace=wrap;html=1;fillColor=#e1d5e7;strokeColor=#9673a6;shadow=1;" vertex="1" parent="MTRYjb5GqHhyapEWr1S5-1">
          <mxGeometry x="210" y="640" width="120" height="60" as="geometry" />
        </mxCell>
        <mxCell id="ydi3MLBrZtDl7dsS37vL-1" value="platform identity provider " style="rounded=0;whiteSpace=wrap;html=1;fillColor=#e1d5e7;strokeColor=#9673a6;shadow=1;" vertex="1" parent="MTRYjb5GqHhyapEWr1S5-1">
          <mxGeometry x="210" y="720" width="120" height="60" as="geometry" />
        </mxCell>
        <mxCell id="ydi3MLBrZtDl7dsS37vL-9" style="edgeStyle=orthogonalEdgeStyle;rounded=0;orthogonalLoop=1;jettySize=auto;html=1;exitX=1;exitY=0.5;exitDx=0;exitDy=0;entryX=0.5;entryY=0;entryDx=0;entryDy=0;entryPerimeter=0;" edge="1" parent="MTRYjb5GqHhyapEWr1S5-1" source="ydi3MLBrZtDl7dsS37vL-2" target="ydi3MLBrZtDl7dsS37vL-6">
          <mxGeometry relative="1" as="geometry">
            <mxPoint x="730" y="820" as="targetPoint" />
            <Array as="points">
              <mxPoint x="530" y="835" />
              <mxPoint x="530" y="750" />
              <mxPoint x="790" y="750" />
            </Array>
          </mxGeometry>
        </mxCell>
        <mxCell id="ydi3MLBrZtDl7dsS37vL-2" value="platform identity manager " style="rounded=0;whiteSpace=wrap;html=1;fillColor=#e1d5e7;strokeColor=#9673a6;shadow=1;" vertex="1" parent="MTRYjb5GqHhyapEWr1S5-1">
          <mxGeometry x="210" y="805" width="120" height="60" as="geometry" />
        </mxCell>
        <mxCell id="ydi3MLBrZtDl7dsS37vL-4" style="edgeStyle=orthogonalEdgeStyle;rounded=0;orthogonalLoop=1;jettySize=auto;html=1;exitX=0.5;exitY=1;exitDx=0;exitDy=0;" edge="1" parent="MTRYjb5GqHhyapEWr1S5-1" source="MTRYjb5GqHhyapEWr1S5-32" target="ydi3MLBrZtDl7dsS37vL-1">
          <mxGeometry relative="1" as="geometry">
            <Array as="points">
              <mxPoint x="270" y="610" />
              <mxPoint x="180" y="610" />
              <mxPoint x="180" y="750" />
            </Array>
          </mxGeometry>
        </mxCell>
        <mxCell id="ydi3MLBrZtDl7dsS37vL-6" value="External Postgres Database Server" style="shape=cylinder3;whiteSpace=wrap;html=1;boundedLbl=1;backgroundOutline=1;size=15;fillColor=#d5e8d4;strokeColor=#82b366;" vertex="1" parent="MTRYjb5GqHhyapEWr1S5-1">
          <mxGeometry x="740" y="780" width="100" height="80" as="geometry" />
        </mxCell>
        <mxCell id="ydi3MLBrZtDl7dsS37vL-7" style="edgeStyle=orthogonalEdgeStyle;rounded=0;orthogonalLoop=1;jettySize=auto;html=1;exitX=1.017;exitY=0.383;exitDx=0;exitDy=0;exitPerimeter=0;entryX=0.5;entryY=0;entryDx=0;entryDy=0;entryPerimeter=0;" edge="1" parent="MTRYjb5GqHhyapEWr1S5-1" source="ydi3MLBrZtDl7dsS37vL-0" target="ydi3MLBrZtDl7dsS37vL-6">
          <mxGeometry relative="1" as="geometry">
            <mxPoint x="790" y="770" as="targetPoint" />
            <Array as="points">
              <mxPoint x="530" y="663" />
              <mxPoint x="530" y="750" />
              <mxPoint x="790" y="750" />
            </Array>
          </mxGeometry>
        </mxCell>
        <mxCell id="ydi3MLBrZtDl7dsS37vL-8" style="edgeStyle=orthogonalEdgeStyle;rounded=0;orthogonalLoop=1;jettySize=auto;html=1;exitX=1;exitY=0.5;exitDx=0;exitDy=0;entryX=0.5;entryY=0;entryDx=0;entryDy=0;entryPerimeter=0;" edge="1" parent="MTRYjb5GqHhyapEWr1S5-1" source="ydi3MLBrZtDl7dsS37vL-1" target="ydi3MLBrZtDl7dsS37vL-6">
          <mxGeometry relative="1" as="geometry">
            <mxPoint x="780" y="780" as="targetPoint" />
            <Array as="points">
              <mxPoint x="790" y="750" />
            </Array>
          </mxGeometry>
        </mxCell>
        <mxCell id="ohPCjxu4adjSx2QbRdJw-0" value="8" style="text;html=1;strokeColor=none;fillColor=none;align=center;verticalAlign=middle;whiteSpace=wrap;rounded=0;" vertex="1" parent="MTRYjb5GqHhyapEWr1S5-1">
          <mxGeometry x="160" y="580" width="60" height="30" as="geometry" />
        </mxCell>
      </root>
    </mxGraphModel>
  </diagram>
  <diagram name="zen-external-postgres" id="g50nvN8hmYWhJyT_NmiY">
    <mxGraphModel dx="1599" dy="944" grid="0" gridSize="10" guides="1" tooltips="1" connect="1" arrows="1" fold="1" page="1" pageScale="1" pageWidth="850" pageHeight="1100" math="0" shadow="0">
      <root>
        <mxCell id="9M9QKhLYLrC1YGPUZSZZ-0" />
        <mxCell id="9M9QKhLYLrC1YGPUZSZZ-1" parent="9M9QKhLYLrC1YGPUZSZZ-0" />
        <mxCell id="9M9QKhLYLrC1YGPUZSZZ-2" style="edgeStyle=orthogonalEdgeStyle;rounded=0;orthogonalLoop=1;jettySize=auto;html=1;exitX=0.5;exitY=1;exitDx=0;exitDy=0;entryX=0.5;entryY=0;entryDx=0;entryDy=0;" edge="1" parent="9M9QKhLYLrC1YGPUZSZZ-1" source="9M9QKhLYLrC1YGPUZSZZ-5" target="9M9QKhLYLrC1YGPUZSZZ-8">
          <mxGeometry relative="1" as="geometry" />
        </mxCell>
        <mxCell id="9M9QKhLYLrC1YGPUZSZZ-3" style="edgeStyle=orthogonalEdgeStyle;rounded=0;orthogonalLoop=1;jettySize=auto;html=1;exitX=1;exitY=0.5;exitDx=0;exitDy=0;entryX=0.5;entryY=0;entryDx=0;entryDy=0;" edge="1" parent="9M9QKhLYLrC1YGPUZSZZ-1" source="9M9QKhLYLrC1YGPUZSZZ-5" target="9M9QKhLYLrC1YGPUZSZZ-16">
          <mxGeometry relative="1" as="geometry" />
        </mxCell>
        <mxCell id="9M9QKhLYLrC1YGPUZSZZ-4" style="edgeStyle=orthogonalEdgeStyle;rounded=0;orthogonalLoop=1;jettySize=auto;html=1;exitX=1;exitY=0.25;exitDx=0;exitDy=0;entryX=1;entryY=0.5;entryDx=0;entryDy=0;" edge="1" parent="9M9QKhLYLrC1YGPUZSZZ-1" source="9M9QKhLYLrC1YGPUZSZZ-5" target="9M9QKhLYLrC1YGPUZSZZ-21">
          <mxGeometry relative="1" as="geometry">
            <Array as="points">
              <mxPoint x="580" y="115" />
              <mxPoint x="580" y="500" />
            </Array>
          </mxGeometry>
        </mxCell>
        <mxCell id="9M9QKhLYLrC1YGPUZSZZ-5" value="Cloud Pak Operator " style="rounded=0;whiteSpace=wrap;html=1;fillColor=#e1d5e7;strokeColor=#9673a6;shadow=1;" vertex="1" parent="9M9QKhLYLrC1YGPUZSZZ-1">
          <mxGeometry x="210" y="100" width="120" height="60" as="geometry" />
        </mxCell>
        <mxCell id="9M9QKhLYLrC1YGPUZSZZ-6" style="edgeStyle=orthogonalEdgeStyle;rounded=0;orthogonalLoop=1;jettySize=auto;html=1;exitX=0.5;exitY=1;exitDx=0;exitDy=0;entryX=0.5;entryY=0;entryDx=0;entryDy=0;" edge="1" parent="9M9QKhLYLrC1YGPUZSZZ-1" source="9M9QKhLYLrC1YGPUZSZZ-8" target="9M9QKhLYLrC1YGPUZSZZ-14">
          <mxGeometry relative="1" as="geometry" />
        </mxCell>
        <mxCell id="9M9QKhLYLrC1YGPUZSZZ-7" style="edgeStyle=orthogonalEdgeStyle;rounded=0;orthogonalLoop=1;jettySize=auto;html=1;exitX=1;exitY=0.5;exitDx=0;exitDy=0;entryX=0;entryY=0.5;entryDx=0;entryDy=0;" edge="1" parent="9M9QKhLYLrC1YGPUZSZZ-1" source="9M9QKhLYLrC1YGPUZSZZ-8" target="9M9QKhLYLrC1YGPUZSZZ-16">
          <mxGeometry relative="1" as="geometry" />
        </mxCell>
        <mxCell id="9M9QKhLYLrC1YGPUZSZZ-8" value="Common Service Operator" style="rounded=0;whiteSpace=wrap;html=1;fillColor=#e1d5e7;strokeColor=#9673a6;shadow=1;" vertex="1" parent="9M9QKhLYLrC1YGPUZSZZ-1">
          <mxGeometry x="210" y="210" width="120" height="60" as="geometry" />
        </mxCell>
        <mxCell id="9M9QKhLYLrC1YGPUZSZZ-9" value="1" style="text;html=1;strokeColor=none;fillColor=none;align=center;verticalAlign=middle;whiteSpace=wrap;rounded=0;" vertex="1" parent="9M9QKhLYLrC1YGPUZSZZ-1">
          <mxGeometry x="210" y="170" width="60" height="30" as="geometry" />
        </mxCell>
        <mxCell id="9M9QKhLYLrC1YGPUZSZZ-10" style="edgeStyle=orthogonalEdgeStyle;rounded=0;orthogonalLoop=1;jettySize=auto;html=1;exitX=1;exitY=0.5;exitDx=0;exitDy=0;" edge="1" parent="9M9QKhLYLrC1YGPUZSZZ-1" source="9M9QKhLYLrC1YGPUZSZZ-14" target="9M9QKhLYLrC1YGPUZSZZ-19">
          <mxGeometry relative="1" as="geometry" />
        </mxCell>
        <mxCell id="9M9QKhLYLrC1YGPUZSZZ-11" style="edgeStyle=orthogonalEdgeStyle;rounded=0;orthogonalLoop=1;jettySize=auto;html=1;exitX=1;exitY=0.5;exitDx=0;exitDy=0;entryX=0;entryY=0.5;entryDx=0;entryDy=0;" edge="1" parent="9M9QKhLYLrC1YGPUZSZZ-1" source="9M9QKhLYLrC1YGPUZSZZ-14" target="9M9QKhLYLrC1YGPUZSZZ-17">
          <mxGeometry relative="1" as="geometry">
            <Array as="points">
              <mxPoint x="370" y="340" />
              <mxPoint x="370" y="420" />
            </Array>
          </mxGeometry>
        </mxCell>
        <mxCell id="9M9QKhLYLrC1YGPUZSZZ-12" style="edgeStyle=orthogonalEdgeStyle;rounded=0;orthogonalLoop=1;jettySize=auto;html=1;exitX=0.5;exitY=1;exitDx=0;exitDy=0;entryX=0;entryY=0.5;entryDx=0;entryDy=0;" edge="1" parent="9M9QKhLYLrC1YGPUZSZZ-1" source="9M9QKhLYLrC1YGPUZSZZ-14" target="9M9QKhLYLrC1YGPUZSZZ-21">
          <mxGeometry relative="1" as="geometry" />
        </mxCell>
        <mxCell id="9M9QKhLYLrC1YGPUZSZZ-13" style="edgeStyle=orthogonalEdgeStyle;rounded=0;orthogonalLoop=1;jettySize=auto;html=1;exitX=0.25;exitY=1;exitDx=0;exitDy=0;entryX=0.25;entryY=0;entryDx=0;entryDy=0;" edge="1" parent="9M9QKhLYLrC1YGPUZSZZ-1" source="9M9QKhLYLrC1YGPUZSZZ-14" target="9M9QKhLYLrC1YGPUZSZZ-26">
          <mxGeometry relative="1" as="geometry" />
        </mxCell>
        <mxCell id="9M9QKhLYLrC1YGPUZSZZ-14" value="ODLM" style="rounded=0;whiteSpace=wrap;html=1;fillColor=#e1d5e7;strokeColor=#9673a6;shadow=1;" vertex="1" parent="9M9QKhLYLrC1YGPUZSZZ-1">
          <mxGeometry x="210" y="310" width="120" height="60" as="geometry" />
        </mxCell>
        <mxCell id="9M9QKhLYLrC1YGPUZSZZ-15" style="edgeStyle=orthogonalEdgeStyle;rounded=0;orthogonalLoop=1;jettySize=auto;html=1;exitX=1;exitY=0.5;exitDx=0;exitDy=0;entryX=1;entryY=0.5;entryDx=0;entryDy=0;" edge="1" parent="9M9QKhLYLrC1YGPUZSZZ-1" source="9M9QKhLYLrC1YGPUZSZZ-16" target="9M9QKhLYLrC1YGPUZSZZ-17">
          <mxGeometry relative="1" as="geometry">
            <Array as="points">
              <mxPoint x="550" y="240" />
              <mxPoint x="550" y="420" />
            </Array>
          </mxGeometry>
        </mxCell>
        <mxCell id="9M9QKhLYLrC1YGPUZSZZ-16" value="&lt;div align=&quot;left&quot;&gt;commonService CR: {&lt;br&gt;&lt;/div&gt;&lt;div align=&quot;left&quot;&gt;size: &lt;br&gt;&lt;/div&gt;&lt;div align=&quot;left&quot;&gt;&lt;font color=&quot;#cc0000&quot;&gt;sharedDBSvcs&lt;/font&gt;: &lt;br&gt;&lt;/div&gt;&lt;div align=&quot;left&quot;&gt;}&lt;br&gt;&lt;/div&gt;" style="rounded=1;whiteSpace=wrap;html=1;fillColor=#dae8fc;strokeColor=#6c8ebf;shadow=1;align=left;" vertex="1" parent="9M9QKhLYLrC1YGPUZSZZ-1">
          <mxGeometry x="410" y="210" width="120" height="60" as="geometry" />
        </mxCell>
        <mxCell id="9M9QKhLYLrC1YGPUZSZZ-17" value="&lt;div align=&quot;center&quot;&gt;&lt;br&gt;&lt;/div&gt;" style="rounded=1;whiteSpace=wrap;html=1;fillColor=#dae8fc;strokeColor=#6c8ebf;shadow=1;align=left;" vertex="1" parent="9M9QKhLYLrC1YGPUZSZZ-1">
          <mxGeometry x="410" y="390" width="120" height="60" as="geometry" />
        </mxCell>
        <mxCell id="9M9QKhLYLrC1YGPUZSZZ-18" value="OperandConfig" style="text;html=1;strokeColor=none;fillColor=none;align=center;verticalAlign=middle;whiteSpace=wrap;rounded=0;" vertex="1" parent="9M9QKhLYLrC1YGPUZSZZ-1">
          <mxGeometry x="440" y="405" width="60" height="30" as="geometry" />
        </mxCell>
        <mxCell id="9M9QKhLYLrC1YGPUZSZZ-19" value="&lt;div align=&quot;center&quot;&gt;&lt;br&gt;&lt;/div&gt;" style="rounded=1;whiteSpace=wrap;html=1;fillColor=#dae8fc;strokeColor=#6c8ebf;shadow=1;align=left;" vertex="1" parent="9M9QKhLYLrC1YGPUZSZZ-1">
          <mxGeometry x="410" y="310" width="120" height="60" as="geometry" />
        </mxCell>
        <mxCell id="9M9QKhLYLrC1YGPUZSZZ-20" value="OperandRegistry" style="text;html=1;strokeColor=none;fillColor=none;align=center;verticalAlign=middle;whiteSpace=wrap;rounded=0;" vertex="1" parent="9M9QKhLYLrC1YGPUZSZZ-1">
          <mxGeometry x="440" y="325" width="60" height="30" as="geometry" />
        </mxCell>
        <mxCell id="9M9QKhLYLrC1YGPUZSZZ-21" value="&lt;div align=&quot;center&quot;&gt;&lt;br&gt;&lt;/div&gt;" style="rounded=1;whiteSpace=wrap;html=1;fillColor=#dae8fc;strokeColor=#6c8ebf;shadow=1;align=left;" vertex="1" parent="9M9QKhLYLrC1YGPUZSZZ-1">
          <mxGeometry x="410" y="470" width="120" height="60" as="geometry" />
        </mxCell>
        <mxCell id="9M9QKhLYLrC1YGPUZSZZ-22" value="Zen OperandRequest" style="text;html=1;strokeColor=none;fillColor=none;align=center;verticalAlign=middle;whiteSpace=wrap;rounded=0;" vertex="1" parent="9M9QKhLYLrC1YGPUZSZZ-1">
          <mxGeometry x="440" y="485" width="60" height="30" as="geometry" />
        </mxCell>
        <mxCell id="9M9QKhLYLrC1YGPUZSZZ-23" style="edgeStyle=orthogonalEdgeStyle;rounded=0;orthogonalLoop=1;jettySize=auto;html=1;exitX=1;exitY=0.5;exitDx=0;exitDy=0;entryX=0;entryY=0.5;entryDx=0;entryDy=0;" edge="1" parent="9M9QKhLYLrC1YGPUZSZZ-1" source="9M9QKhLYLrC1YGPUZSZZ-26" target="9M9QKhLYLrC1YGPUZSZZ-31">
          <mxGeometry relative="1" as="geometry" />
        </mxCell>
        <mxCell id="9M9QKhLYLrC1YGPUZSZZ-24" style="edgeStyle=orthogonalEdgeStyle;rounded=0;orthogonalLoop=1;jettySize=auto;html=1;exitX=0.5;exitY=1;exitDx=0;exitDy=0;entryX=0.5;entryY=0;entryDx=0;entryDy=0;" edge="1" parent="9M9QKhLYLrC1YGPUZSZZ-1" source="9M9QKhLYLrC1YGPUZSZZ-26" target="9M9QKhLYLrC1YGPUZSZZ-59">
          <mxGeometry relative="1" as="geometry" />
        </mxCell>
        <mxCell id="9M9QKhLYLrC1YGPUZSZZ-26" value="Zen Operator" style="rounded=0;whiteSpace=wrap;html=1;fillColor=#e1d5e7;strokeColor=#9673a6;shadow=1;" vertex="1" parent="9M9QKhLYLrC1YGPUZSZZ-1">
          <mxGeometry x="210" y="520" width="120" height="60" as="geometry" />
        </mxCell>
        <mxCell id="9M9QKhLYLrC1YGPUZSZZ-27" style="edgeStyle=orthogonalEdgeStyle;rounded=0;orthogonalLoop=1;jettySize=auto;html=1;exitX=0.5;exitY=1;exitDx=0;exitDy=0;entryX=1;entryY=0.5;entryDx=0;entryDy=0;dashed=1;" edge="1" parent="9M9QKhLYLrC1YGPUZSZZ-1" source="9M9QKhLYLrC1YGPUZSZZ-31" target="9M9QKhLYLrC1YGPUZSZZ-59">
          <mxGeometry relative="1" as="geometry" />
        </mxCell>
        <mxCell id="9M9QKhLYLrC1YGPUZSZZ-28" style="edgeStyle=orthogonalEdgeStyle;rounded=0;orthogonalLoop=1;jettySize=auto;html=1;exitX=0.5;exitY=1;exitDx=0;exitDy=0;entryX=1;entryY=0.75;entryDx=0;entryDy=0;dashed=1;" edge="1" parent="9M9QKhLYLrC1YGPUZSZZ-1" source="9M9QKhLYLrC1YGPUZSZZ-31" target="9M9QKhLYLrC1YGPUZSZZ-60">
          <mxGeometry relative="1" as="geometry" />
        </mxCell>
        <mxCell id="9M9QKhLYLrC1YGPUZSZZ-30" style="edgeStyle=orthogonalEdgeStyle;rounded=0;orthogonalLoop=1;jettySize=auto;html=1;exitX=0.5;exitY=1;exitDx=0;exitDy=0;entryX=1;entryY=0.25;entryDx=0;entryDy=0;dashed=1;" edge="1" parent="9M9QKhLYLrC1YGPUZSZZ-1" source="9M9QKhLYLrC1YGPUZSZZ-31" target="9M9QKhLYLrC1YGPUZSZZ-60">
          <mxGeometry relative="1" as="geometry" />
        </mxCell>
        <mxCell id="9M9QKhLYLrC1YGPUZSZZ-31" value="&lt;div align=&quot;center&quot;&gt;&lt;br&gt;&lt;/div&gt;" style="rounded=1;whiteSpace=wrap;html=1;fillColor=#dae8fc;strokeColor=#6c8ebf;shadow=1;align=left;" vertex="1" parent="9M9QKhLYLrC1YGPUZSZZ-1">
          <mxGeometry x="410" y="550" width="120" height="60" as="geometry" />
        </mxCell>
        <mxCell id="9M9QKhLYLrC1YGPUZSZZ-32" value="&lt;font style=&quot;font-size: 12px;&quot; color=&quot;#cc0000&quot;&gt;zen-metastore-edb-cm&lt;/font&gt;" style="text;html=1;strokeColor=none;fillColor=none;align=center;verticalAlign=middle;whiteSpace=wrap;rounded=0;" vertex="1" parent="9M9QKhLYLrC1YGPUZSZZ-1">
          <mxGeometry x="440" y="560" width="60" height="30" as="geometry" />
        </mxCell>
        <mxCell id="9M9QKhLYLrC1YGPUZSZZ-33" value="" style="ellipse;shape=cloud;whiteSpace=wrap;html=1;" vertex="1" parent="9M9QKhLYLrC1YGPUZSZZ-1">
          <mxGeometry x="600" y="390" width="190" height="170" as="geometry" />
        </mxCell>
        <mxCell id="9M9QKhLYLrC1YGPUZSZZ-34" value="" style="shape=flexArrow;endArrow=classic;html=1;rounded=0;" edge="1" parent="9M9QKhLYLrC1YGPUZSZZ-1">
          <mxGeometry width="50" height="50" relative="1" as="geometry">
            <mxPoint x="550" y="580" as="sourcePoint" />
            <mxPoint x="600" y="530" as="targetPoint" />
          </mxGeometry>
        </mxCell>
        <mxCell id="9M9QKhLYLrC1YGPUZSZZ-35" value="&lt;div&gt;is_embedded_database: false&lt;/div&gt;&lt;div&gt;database_ca-cert:&lt;/div&gt;&lt;div&gt;database_client_cert:&lt;/div&gt;&lt;div&gt;database_name:&lt;/div&gt;&lt;div&gt;database_port:&lt;/div&gt;&lt;div&gt;database_user:&lt;br&gt;&lt;/div&gt;&lt;div&gt;&lt;br&gt;&lt;/div&gt;" style="text;html=1;strokeColor=none;fillColor=none;align=center;verticalAlign=middle;whiteSpace=wrap;rounded=0;" vertex="1" parent="9M9QKhLYLrC1YGPUZSZZ-1">
          <mxGeometry x="670" y="473" width="60" height="30" as="geometry" />
        </mxCell>
        <mxCell id="9M9QKhLYLrC1YGPUZSZZ-36" style="edgeStyle=orthogonalEdgeStyle;rounded=0;orthogonalLoop=1;jettySize=auto;html=1;exitX=0;exitY=0.5;exitDx=0;exitDy=0;dashed=1;entryX=1;entryY=0.75;entryDx=0;entryDy=0;" edge="1" parent="9M9QKhLYLrC1YGPUZSZZ-1" source="9M9QKhLYLrC1YGPUZSZZ-39" target="9M9QKhLYLrC1YGPUZSZZ-59">
          <mxGeometry relative="1" as="geometry">
            <mxPoint x="470" y="670" as="targetPoint" />
          </mxGeometry>
        </mxCell>
        <mxCell id="9M9QKhLYLrC1YGPUZSZZ-37" style="edgeStyle=orthogonalEdgeStyle;rounded=0;orthogonalLoop=1;jettySize=auto;html=1;exitX=0;exitY=0.5;exitDx=0;exitDy=0;entryX=1;entryY=0.75;entryDx=0;entryDy=0;dashed=1;" edge="1" parent="9M9QKhLYLrC1YGPUZSZZ-1" source="9M9QKhLYLrC1YGPUZSZZ-39" target="9M9QKhLYLrC1YGPUZSZZ-60">
          <mxGeometry relative="1" as="geometry">
            <Array as="points">
              <mxPoint x="550" y="670" />
              <mxPoint x="550" y="765" />
            </Array>
          </mxGeometry>
        </mxCell>
        <mxCell id="9M9QKhLYLrC1YGPUZSZZ-39" value="&lt;div align=&quot;center&quot;&gt;&lt;br&gt;&lt;/div&gt;" style="rounded=1;whiteSpace=wrap;html=1;fillColor=#dae8fc;strokeColor=#6c8ebf;shadow=1;align=left;" vertex="1" parent="9M9QKhLYLrC1YGPUZSZZ-1">
          <mxGeometry x="580" y="640" width="120" height="60" as="geometry" />
        </mxCell>
        <mxCell id="9M9QKhLYLrC1YGPUZSZZ-40" value="&lt;font style=&quot;font-size: 12px;&quot; color=&quot;#cc0000&quot;&gt;zen-metastore-edb-secret&lt;/font&gt;" style="text;html=1;strokeColor=none;fillColor=none;align=center;verticalAlign=middle;whiteSpace=wrap;rounded=0;" vertex="1" parent="9M9QKhLYLrC1YGPUZSZZ-1">
          <mxGeometry x="600" y="655" width="70" height="30" as="geometry" />
        </mxCell>
        <mxCell id="9M9QKhLYLrC1YGPUZSZZ-41" value="" style="ellipse;shape=cloud;whiteSpace=wrap;html=1;" vertex="1" parent="9M9QKhLYLrC1YGPUZSZZ-1">
          <mxGeometry x="700" y="563" width="150" height="75" as="geometry" />
        </mxCell>
        <mxCell id="9M9QKhLYLrC1YGPUZSZZ-42" value="&lt;div&gt;ca.crt:&lt;/div&gt;&lt;div&gt;tls.crt:&lt;/div&gt;&lt;div&gt;tls.key:&lt;br&gt;&lt;/div&gt;" style="text;html=1;strokeColor=none;fillColor=none;align=center;verticalAlign=middle;whiteSpace=wrap;rounded=0;" vertex="1" parent="9M9QKhLYLrC1YGPUZSZZ-1">
          <mxGeometry x="750" y="585.5" width="60" height="30" as="geometry" />
        </mxCell>
        <mxCell id="9M9QKhLYLrC1YGPUZSZZ-43" value="" style="shape=flexArrow;endArrow=classic;html=1;rounded=0;" edge="1" parent="9M9QKhLYLrC1YGPUZSZZ-1">
          <mxGeometry width="50" height="50" relative="1" as="geometry">
            <mxPoint x="710" y="677.5" as="sourcePoint" />
            <mxPoint x="760" y="640" as="targetPoint" />
          </mxGeometry>
        </mxCell>
        <mxCell id="9M9QKhLYLrC1YGPUZSZZ-44" value="" style="ellipse;shape=cloud;whiteSpace=wrap;html=1;" vertex="1" parent="9M9QKhLYLrC1YGPUZSZZ-1">
          <mxGeometry x="610" y="250" width="170" height="90" as="geometry" />
        </mxCell>
        <mxCell id="9M9QKhLYLrC1YGPUZSZZ-45" value="&lt;div&gt;&quot;IM,Zen&quot;,&lt;/div&gt;&lt;div&gt;&quot;IM&quot;,&lt;/div&gt;&lt;div&gt;&quot;Zen&quot;,&lt;/div&gt;&lt;div&gt;&quot;Keycloak&quot;&lt;br&gt;&lt;/div&gt;" style="text;html=1;strokeColor=none;fillColor=none;align=center;verticalAlign=middle;whiteSpace=wrap;rounded=0;" vertex="1" parent="9M9QKhLYLrC1YGPUZSZZ-1">
          <mxGeometry x="660" y="280" width="60" height="30" as="geometry" />
        </mxCell>
        <mxCell id="9M9QKhLYLrC1YGPUZSZZ-46" value="" style="shape=flexArrow;endArrow=classic;html=1;rounded=0;" edge="1" parent="9M9QKhLYLrC1YGPUZSZZ-1" target="9M9QKhLYLrC1YGPUZSZZ-44">
          <mxGeometry width="50" height="50" relative="1" as="geometry">
            <mxPoint x="560" y="250" as="sourcePoint" />
            <mxPoint x="610" y="200" as="targetPoint" />
          </mxGeometry>
        </mxCell>
        <mxCell id="9M9QKhLYLrC1YGPUZSZZ-47" value="2.1" style="text;html=1;strokeColor=none;fillColor=none;align=center;verticalAlign=middle;whiteSpace=wrap;rounded=0;" vertex="1" parent="9M9QKhLYLrC1YGPUZSZZ-1">
          <mxGeometry x="330" y="210" width="60" height="30" as="geometry" />
        </mxCell>
        <mxCell id="9M9QKhLYLrC1YGPUZSZZ-48" value="2.2" style="text;html=1;strokeColor=none;fillColor=none;align=center;verticalAlign=middle;whiteSpace=wrap;rounded=0;" vertex="1" parent="9M9QKhLYLrC1YGPUZSZZ-1">
          <mxGeometry x="260" y="270" width="60" height="30" as="geometry" />
        </mxCell>
        <mxCell id="9M9QKhLYLrC1YGPUZSZZ-49" value="3" style="text;html=1;strokeColor=none;fillColor=none;align=center;verticalAlign=middle;whiteSpace=wrap;rounded=0;" vertex="1" parent="9M9QKhLYLrC1YGPUZSZZ-1">
          <mxGeometry x="330" y="310" width="60" height="30" as="geometry" />
        </mxCell>
        <mxCell id="9M9QKhLYLrC1YGPUZSZZ-50" value="4" style="text;html=1;strokeColor=none;fillColor=none;align=center;verticalAlign=middle;whiteSpace=wrap;rounded=0;" vertex="1" parent="9M9QKhLYLrC1YGPUZSZZ-1">
          <mxGeometry x="350" y="90" width="60" height="30" as="geometry" />
        </mxCell>
        <mxCell id="9M9QKhLYLrC1YGPUZSZZ-51" value="4.1" style="text;html=1;strokeColor=none;fillColor=none;align=center;verticalAlign=middle;whiteSpace=wrap;rounded=0;" vertex="1" parent="9M9QKhLYLrC1YGPUZSZZ-1">
          <mxGeometry x="350" y="130" width="60" height="30" as="geometry" />
        </mxCell>
        <mxCell id="9M9QKhLYLrC1YGPUZSZZ-52" value="5" style="text;html=1;strokeColor=none;fillColor=none;align=center;verticalAlign=middle;whiteSpace=wrap;rounded=0;" vertex="1" parent="9M9QKhLYLrC1YGPUZSZZ-1">
          <mxGeometry x="260" y="470" width="60" height="30" as="geometry" />
        </mxCell>
        <mxCell id="9M9QKhLYLrC1YGPUZSZZ-53" value="2.1.2" style="text;html=1;strokeColor=none;fillColor=none;align=center;verticalAlign=middle;whiteSpace=wrap;rounded=0;" vertex="1" parent="9M9QKhLYLrC1YGPUZSZZ-1">
          <mxGeometry x="500" y="280" width="60" height="30" as="geometry" />
        </mxCell>
        <mxCell id="9M9QKhLYLrC1YGPUZSZZ-54" value="6" style="text;html=1;strokeColor=none;fillColor=none;align=center;verticalAlign=middle;whiteSpace=wrap;rounded=0;" vertex="1" parent="9M9QKhLYLrC1YGPUZSZZ-1">
          <mxGeometry x="200" y="470" width="60" height="30" as="geometry" />
        </mxCell>
        <mxCell id="9M9QKhLYLrC1YGPUZSZZ-55" value="7" style="text;html=1;strokeColor=none;fillColor=none;align=center;verticalAlign=middle;whiteSpace=wrap;rounded=0;" vertex="1" parent="9M9QKhLYLrC1YGPUZSZZ-1">
          <mxGeometry x="365" y="535" width="60" height="30" as="geometry" />
        </mxCell>
        <mxCell id="9M9QKhLYLrC1YGPUZSZZ-56" value="Cert Manager" style="rounded=0;whiteSpace=wrap;html=1;fillColor=#e1d5e7;strokeColor=#9673a6;shadow=1;" vertex="1" parent="9M9QKhLYLrC1YGPUZSZZ-1">
          <mxGeometry x="20" y="210" width="120" height="60" as="geometry" />
        </mxCell>
        <mxCell id="9M9QKhLYLrC1YGPUZSZZ-57" value="&lt;div align=&quot;center&quot;&gt;&lt;br&gt;&lt;/div&gt;" style="rounded=1;whiteSpace=wrap;html=1;fillColor=#dae8fc;strokeColor=#6c8ebf;shadow=1;align=left;" vertex="1" parent="9M9QKhLYLrC1YGPUZSZZ-1">
          <mxGeometry x="20" y="425" width="120" height="60" as="geometry" />
        </mxCell>
        <mxCell id="9M9QKhLYLrC1YGPUZSZZ-58" value="cs-ca-certificate" style="text;html=1;strokeColor=none;fillColor=none;align=center;verticalAlign=middle;whiteSpace=wrap;rounded=0;" vertex="1" parent="9M9QKhLYLrC1YGPUZSZZ-1">
          <mxGeometry x="40" y="440.5" width="60" height="30" as="geometry" />
        </mxCell>
        <mxCell id="9M9QKhLYLrC1YGPUZSZZ-59" value="zen-core-api" style="rounded=0;whiteSpace=wrap;html=1;fillColor=#e1d5e7;strokeColor=#9673a6;shadow=1;" vertex="1" parent="9M9QKhLYLrC1YGPUZSZZ-1">
          <mxGeometry x="210" y="640" width="120" height="60" as="geometry" />
        </mxCell>
        <mxCell id="9M9QKhLYLrC1YGPUZSZZ-60" value="user-mgmt" style="rounded=0;whiteSpace=wrap;html=1;fillColor=#e1d5e7;strokeColor=#9673a6;shadow=1;" vertex="1" parent="9M9QKhLYLrC1YGPUZSZZ-1">
          <mxGeometry x="210" y="720" width="120" height="60" as="geometry" />
        </mxCell>
        <mxCell id="9M9QKhLYLrC1YGPUZSZZ-63" style="edgeStyle=orthogonalEdgeStyle;rounded=0;orthogonalLoop=1;jettySize=auto;html=1;exitX=0.5;exitY=1;exitDx=0;exitDy=0;" edge="1" parent="9M9QKhLYLrC1YGPUZSZZ-1" source="9M9QKhLYLrC1YGPUZSZZ-26" target="9M9QKhLYLrC1YGPUZSZZ-60">
          <mxGeometry relative="1" as="geometry">
            <Array as="points">
              <mxPoint x="270" y="610" />
              <mxPoint x="180" y="610" />
              <mxPoint x="180" y="750" />
            </Array>
          </mxGeometry>
        </mxCell>
        <mxCell id="9M9QKhLYLrC1YGPUZSZZ-64" value="External Postgres Database Server" style="shape=cylinder3;whiteSpace=wrap;html=1;boundedLbl=1;backgroundOutline=1;size=15;fillColor=#d5e8d4;strokeColor=#82b366;" vertex="1" parent="9M9QKhLYLrC1YGPUZSZZ-1">
          <mxGeometry x="740" y="780" width="100" height="80" as="geometry" />
        </mxCell>
        <mxCell id="9M9QKhLYLrC1YGPUZSZZ-65" style="edgeStyle=orthogonalEdgeStyle;rounded=0;orthogonalLoop=1;jettySize=auto;html=1;exitX=1.017;exitY=0.383;exitDx=0;exitDy=0;exitPerimeter=0;entryX=0.5;entryY=0;entryDx=0;entryDy=0;entryPerimeter=0;" edge="1" parent="9M9QKhLYLrC1YGPUZSZZ-1" source="9M9QKhLYLrC1YGPUZSZZ-59" target="9M9QKhLYLrC1YGPUZSZZ-64">
          <mxGeometry relative="1" as="geometry">
            <mxPoint x="790" y="770" as="targetPoint" />
            <Array as="points">
              <mxPoint x="530" y="663" />
              <mxPoint x="530" y="750" />
              <mxPoint x="790" y="750" />
            </Array>
          </mxGeometry>
        </mxCell>
        <mxCell id="9M9QKhLYLrC1YGPUZSZZ-66" style="edgeStyle=orthogonalEdgeStyle;rounded=0;orthogonalLoop=1;jettySize=auto;html=1;exitX=1;exitY=0.5;exitDx=0;exitDy=0;entryX=0.5;entryY=0;entryDx=0;entryDy=0;entryPerimeter=0;" edge="1" parent="9M9QKhLYLrC1YGPUZSZZ-1" source="9M9QKhLYLrC1YGPUZSZZ-60" target="9M9QKhLYLrC1YGPUZSZZ-64">
          <mxGeometry relative="1" as="geometry">
            <mxPoint x="780" y="780" as="targetPoint" />
            <Array as="points">
              <mxPoint x="790" y="750" />
            </Array>
          </mxGeometry>
        </mxCell>
      </root>
    </mxGraphModel>
  </diagram>
</mxfile>
